<?xml version="1.0" encoding="utf-8"?>
<!-- Generator: Adobe Illustrator 27.1.0, SVG Export Plug-In . SVG Version: 6.00 Build 0)  -->
<svg version="1.1" id="Layer_1" xmlns="http://www.w3.org/2000/svg" xmlns:xlink="http://www.w3.org/1999/xlink" x="0px" y="0px"
	 viewBox="0 0 1080 309" style="enable-background:new 0 0 1080 309;" xml:space="preserve">
<style type="text/css">
	.st0{fill:#741E48;}
	.st1{fill:#D4A67A;}
	.st2{fill:#74204A;}
	.st3{fill:#75224B;}
	.st4{fill:#75214B;}
	.st5{fill:#75214A;}
	.st6{fill:#75204A;}
	.st7{fill:#752049;}
	.st8{fill:#4E0F31;}
	.st9{fill:#751F49;}
	.st10{fill:#C68755;}
	.st11{fill:#751D48;}
	.st12{fill:#741D48;}
	.st13{fill:#632545;}
	.st14{fill:#652543;}
	.st15{fill:#6A2D4A;}
	.st16{fill:#612845;}
	.st17{fill:#632644;}
	.st18{fill:#6A2848;}
	.st19{fill:#5C2943;}
	.st20{fill:#652D4A;}
	.st21{fill:#622C47;}
	.st22{fill:#632845;}
	.st23{fill:#60344B;}
	.st24{fill:#D39A88;}
	.st25{fill:#78323C;}
	.st26{fill:#692348;}
</style>
<g>
	<path class="st0" d="M178.9,265.3c-6.2-10.4-12.4-20.7-18.5-31.2c-5.7-9.7-11.2-19.6-17-29.3c-1.9-3.2-2.1-5.5-0.1-8.9
		c28.9-49.7,57.6-99.5,87-149.6c6.3-0.9,12-2.1,17.7-2.2c16.3-0.3,32.6-0.1,48.9,0c2.8,0,5.6,0.7,8.2,1.4c-2,4.6-3.6,9-5.8,13
		c-6.3,11.3-13,22.4-19.4,33.6c-3.2,5.6-5.9,11.4-9.2,17.2c-1.3,1.5-2.3,2.7-3.1,4.2c-11.9,20.6-23.7,41.2-35.6,61.8
		c-3.4,5.9-6.5,11.9-10,18c-5.3,9.1-10.4,18.1-15.5,27c-4,7-7.9,14.1-12.1,20.9C189.3,249.3,184,257.3,178.9,265.3z"/>
	<path class="st1" d="M322.9,69.2c6.6,11,13.2,21.9,19.6,32.9c12.3,20.9,24.5,41.9,36.6,62.9c6.3,10.9,12.6,21.9,18.6,33
		c0.7,1.3,0.5,3.6-0.2,4.9c-5.1,9.1-10.6,18-15.8,27.1c-6,10.5-11.9,21.1-17.9,31.6c-0.7,1.3-1.5,2.5-3,4.7
		c-10.2-17.6-19.8-34.3-29.7-51.6c0.2-1.2,0.6-1.8,1.4-2.5c1.4-0.6,2.8-1,3.3-1.9c3.4-5.9,6.8-11.9,9.9-18.1
		c1.1-2.2,1.5-4.8,2.2-7.5c0.2-0.5,0.4-0.7,1-0.7c3.8,0.7,4.8-1.9,4.6-4c-0.1-2-1.5-4.4-3-5.6c-2.1-1.6-5.2-1.8-7.4-3.2
		c-6.3-4.1-13.1-5.6-20.9-4.9c-6.4,0.2-12.4,0.4-18.6,0.4c-6.7-11.3-13.1-22.4-19.2-33.8c1.5-2.5,2.8-4.8,4.1-7.1
		c7.7-13.3,15.3-26.6,23.2-39.8C315.2,80.2,319.2,74.8,322.9,69.2z"/>
	<path class="st0" d="M332.2,212.1c-0.4,0.6-0.8,1.3-1.3,2.2c-5.3,9.1-10.5,17.9-15.9,26.9c-4-1.1-7.9-2.3-12-3.1
		c-16.1-3-31.3,1.1-46.3,6.2c-14.7,5-29.3,10.6-44.3,15.5c2.2-4.9,4.7-9.5,7.3-14.1c7.8-13.6,15.6-27.2,23.4-40.8
		c4.3-7.5,8.5-15.1,13.1-22.8c2.4-1,4.5-2,6.7-2.7c12.6-3.9,25.3-7.7,38.4-11.4c9.3,0,18.1,0,27.3,0c8.7,1.4,15.7,5.6,22.2,10.7
		c-0.8,1.9-1.6,3.6-2.3,5.2c-0.3,0.1-0.5,0.3-0.9,1C342.3,194.3,337.3,203.2,332.2,212.1z"/>
	<path class="st2" d="M479,98.1c8.5,8.7,6,20.4-6,26.7c1.2,0.6,2.1,1.1,3.1,1.6c12.6,6.3,14.1,24.9,2,32.1
		c-5.3,3.2-12.1,4.8-18.4,5.2c-12.3,0.8-24.6,0.2-37.7,0.2c0-21.1,0-42,0.4-63.4c2-8.4,2-8.4,11.1-8.4c10.6,0,21.1-0.1,31.7-0.2
		c0,0-0.1-0.1,0,0.3c2.6,0.9,5.3,1.4,7.9,1.9c0,0,0,0,0,0.4C475.1,95.9,477.1,97,479,98.1 M453.4,133.9c-3.9,0-7.9,0-11.8,0
		c0,5.4,0,10.1,0,15.4c6.4-0.3,12.3-0.4,18.2-1.1c4-0.5,6.7-2.9,6.4-7.4c-0.3-4.6-3.5-6-7.4-6.7C457.4,133.9,455.8,134,453.4,133.9
		 M445.6,106c-1.4,0.1-2.8,0.2-4.2,0.3c0,4.7,0,8.9,0,13.9c5.9-0.3,11.5-0.4,17-1c3.9-0.4,5.7-3.1,5.6-7c-0.2-4-2.7-6-6.4-6.2
		C453.9,105.8,450.3,106,445.6,106z"/>
	<path class="st3" d="M812,182.3c3.8,0,7.6,0,12.2,0c0,6.3,0,12.6,0,18.8c0,2.8-0.1,5.7,0.1,8.5c0.8,8.5,5.6,12.9,13.6,12.7
		c7.8-0.2,13.4-5.7,13.5-13.7c0.2-8.6,0-17.3,0-26.2c6.5,0,12.6,0,19.4,0c0,1.8,0,3.5,0,5.3c0,15.5,0,31,0,46.5
		c0,17.3-8.3,28-25.3,31.3c-14.4,2.8-27.7-0.7-39.8-9.7c2.7-4.5,5.2-8.7,7.3-12.2c6.3,2.1,11.9,4.6,17.8,5.9
		c13.2,2.8,21.5-5,20.2-19.4c-6,6.2-12.9,9.7-21.3,9.2c-8.3-0.5-15.1-3.7-19.9-11.5c0-1.9,0.4-3.3-0.1-4.2
		c-4.1-7.3-2.5-15.2-2.8-22.8c-0.2-3.8-1.2-8.4,6.4-8.7c-4.1-2.2-9.1-2.3-6.8-6.6C808.9,184,810.5,183.1,812,182.3 M814.1,210.8
		c0.4,0.2,0.7,0.5,1.1,0.7c0.3-4.9,0.5-9.8,0.8-14.6c-0.7,0-1.4,0-2,0C814,201.2,814,205.6,814.1,210.8z"/>
	<path class="st4" d="M496.1,113.2c2.5-12.5,10.5-19.7,22.5-22.4c10.7-2.4,21.3-1.6,30.7,4.6c7.6,5,11.9,12.4,12.3,21.3
		c0.6,15.6,0.2,31.2,0.2,47.1c-6.3,0-12.3,0-18.9,0c0-5.6,0-11,0-16.7c-9.6,0-18.6,0-28.2,0c0,5.5,0,10.9,0,16.9
		c-5.9,0-11.4,0-17.2-0.5c-0.5-15.5-0.4-30.5-0.5-45.5C497,116.3,496.4,114.7,496.1,113.2 M542.9,122.9c-0.3-2.3-0.4-4.7-0.9-6.9
		c-1.3-5.6-6.1-9.5-11.8-9.9c-7.3-0.5-13.2,2.4-14.6,8.6c-1.3,5.5-1,11.3-1.4,16.9c10.2,0,19.3,0,28.6,0
		C542.9,128.8,542.9,126.3,542.9,122.9z"/>
	<path class="st5" d="M421.2,207.2c2.6-15.9,13.2-25.4,29.2-26c4.6-0.2,9.4,0,13.9,1c14.4,3.2,23.1,14.2,23.3,28.9
		c0.2,13.1-0.1,26.3,0,39.4c0,3.4-1.3,4.6-4.5,4.6c-4.8-0.1-9.6,0-15,0c0-5.6,0-10.9-0.2-17c-2-1.2-3.8-1.8-5.6-2
		c-6.8-0.6-13.9,1.4-20.9-1.9c-0.2,1.3-0.3,2.4-0.5,3.4c-0.3,0.3-0.6,0.6-1.3,1.4c-0.6,3.6-0.6,6.7-1,9.7c-0.2,1.6-0.3,3.8-1.2,4.5
		c-1.2,0.8-3.4,0.4-5.1,0.2c-1.1-0.1-2.1-1.1-3.1-1.1c-2.8,0.1-5.5,0.5-8.3,0.7c-0.1-1.4-0.1-2.8,0.3-4.7c0.2-2.8,0-5-0.3-7.3
		c-0.1-9-0.1-18.1,0.2-27.8C421.5,210.8,421.3,209,421.2,207.2 M441.7,223.8c6.1,0.1,12.2,0.3,18.3,0.3c2.7,0,5.4-0.7,8.2-1.9
		c0-3.8,0.1-7.6,0-11.5c-0.4-9.2-8.1-15.1-17.1-13.1C441.5,199.8,436.7,212,441.7,223.8z"/>
	<path class="st5" d="M518.9,254.4c-0.1-0.2-0.2-0.3-0.9-0.3c-0.7,0.4-0.9,0.6-1,0.9c-5.4,0-10.9,0-16.6,0c0-24.3,0-48.3,0-72.1
		c14,0,27.9-0.7,41.8,0.2c10.4,0.7,18.1,6.8,20.5,17.5c2.4,11.2,0.5,21.5-9.3,29c-0.7,0.5-1.3,1-2.4,1.8c2.7,4.3,5.4,8.6,8.1,13.6
		c0.4,1.8,0.9,2.9,1,4c0.1,1.4-0.1,2.7-0.2,4.1c-1.3-0.1-2.6-0.2-3.9-0.2c-1.3,0-2.8-0.2-4,0.3c-3.2,1.4-5.6,1.2-7.8-1.8
		c-0.9-1.3-2.4-2.2-3.7-3.4c-0.1-0.2-0.2-0.3-0.4-1.1c-0.9-1.9-1.7-3.2-2.5-4.5c0,0,0.1-0.1,0.1-0.3c-0.2-0.5-0.5-0.7-0.7-1
		c0,0,0.1,0,0.1-0.3c-0.4-0.8-0.8-1.3-1.2-1.8c-0.2-0.3-0.5-0.6-0.4-1.4c-0.1-1.5-0.3-2.6-0.9-3.5c-0.2-0.3-1.6,0.3-2.4,0.6
		c-1.1,0.1-2.2,0.1-3.9-0.1c-1.8-0.8-3.1-1-4.1-1.7c-2.4-1.6-2.8-0.2-2.9,1.8c-0.2,0.1-0.4,0.2-1.3,0.6c-1.6,4.8-4,9.4-0.5,13.9
		c0,1.4-0.1,2.9-0.2,4.7C518.9,254.3,518.9,254.4,518.9,254.4 M541.4,217.1c6.5-6.9,4.5-17.4-4-18.9c-5.7-1-11.8-0.2-17.6-0.2
		c0,7.3,0,14.3,0,22.5C527.2,219.6,534,218.6,541.4,217.1z"/>
	<path class="st2" d="M730.1,198.2c2.9-7.8,8.9-12.3,16.3-15c8.7-3.1,17.7-3.1,26.5-0.5c12.9,3.9,20.5,13.9,20.9,28.4
		c0.4,14.5,0,28.9-0.7,43.4c-3.1-1.1-5-2.6-8.4-0.7c-5.4,2.9-8.6,0-8.7-6.2c0-1.5-0.7-2.9-1.1-4.4c-0.3-1.6-0.6-3.2-0.8-4.7
		c-9.3,0-18.5,0-28.2,0.6c-0.8,2.3-1.1,4-1.2,5.7c-0.1,2.9,0,5.9,0,9.3c-2.7-0.9-3.9-1.7-5.1-1.7c-2.6,0.1-5.3,1.1-7.9,0.8
		c-1.3-0.1-3.3-2.2-3.3-3.4c0-14.4,0.3-28.9,0.5-43.3c0-1.1-0.5-2.2-0.8-3.3c0.1-0.6,0.2-1.1,0.8-2c0.6-1,0.7-1.6,0.8-2.2
		c0,0,0.1,0.1,0.2,0.1c0.2-0.1,0.4-0.2,0.5-0.2C730.3,198.6,730.2,198.4,730.1,198.2 M773.7,223c0.1-4.9,0.7-9.8,0.2-14.5
		c-0.8-6.7-6.2-11-13.1-11.2c-7-0.2-12.6,3.5-13.8,10.3c-0.9,5-0.6,10.2-0.9,16c0.5,0.6,1,1.8,1.5,1.8c2.7-0.3,5.3-1,8-1.2
		C761.3,223.8,767.2,223.6,773.7,223z"/>
	<path class="st6" d="M593.7,99.9c5.9-5.1,11.9-9.5,20.3-10.2c13-1.1,25.6,7,26.5,20.1c1.2,17.8,0.3,35.8,0.3,54c-6.3,0-12.3,0-19,0
		c0-8.8,0-17.4,0-26c0-5.3,0.1-10.7,0-16c-0.2-8.9-4.8-14.2-12.5-14.4c-8.3-0.2-15.1,5.9-15.3,14.4c-0.3,12.1-0.1,24.3-0.2,36.5
		c0,1.7,0,3.3,0,5.7c-6.2,0-12.3,0-18.3-0.7c0.2-2.5,0.5-4.3,0.5-6.1c0-18.1,0-36.2,0-54.3c0-10.7,0.5-11.3,11.3-10.6
		c2.1,0.1,4.2,1.5,6.3,2.3c0.1,1,0.2,2-0.3,3.3c-2,0.5-3.3,0.6-4.7,0.8c0.1,0.4,0.1,0.9,0.2,1.3C590.4,99.9,592,99.9,593.7,99.9z"/>
	<path class="st3" d="M923,237.8c-4.4,0-8.7,0.1-13.8-0.2c-3-1.6-5.4-2.9-7.3,0.4c0,0,0,0.1-0.4,0.2c-0.8,3.8-1.2,7.4-1.4,11.1
		c-0.2,3.4-1.5,5.3-5.1,4.9c-4.2-0.4-8.4-0.8-12.6-1.1c0-13.3-0.1-26.6,0.3-40.5c1.4-5.8,2.5-11,3.5-16.2
		c7.3-12.3,21.6-18,37.5-14.8c9.2,1.8,16.8,6,21.5,15.2c0.4,1.2,0.8,1.7,1.2,2.3c0,0-0.1,0-0.1,0.4c0.3,3,0.9,5.6,0.9,8.2
		c0.1,13.6,0.1,27.2,0,40.8c0,5.3-2.8,7.1-7.8,5.6c-2.2-0.7-4.5-0.9-7.7-1.6c-0.3-3.3-0.7-7.8-1.2-12.5c-0.2-0.8-0.4-1.3-0.6-1.7
		c0,0-0.3,0-0.6-0.5C926.9,237.4,925,237.6,923,237.8 M903.5,202.3c-0.5,1.6-1.1,3.2-1.5,5.4c-0.1,0.2-0.1,0.3-0.9,0.6
		c-3.6,4.4-2.3,9.4-1.2,14.1c0.3,1.3,3.4,3.5,3.9,3.1c5-3,9.4,2.3,14.1,0.6c1.1-0.4,2.3-0.4,3.4-0.5c1.7-0.1,3.6-0.6,5.1-0.1
		c2.9,0.9,3.7,0,3.5-3.6c0-2.3,0-4.6,0-7c0-14.2-6.8-19.7-21.1-16.9c-5.1-2.4-4.5,1.2-4.6,4C904.1,202.2,904.2,202.3,903.5,202.3z"
		/>
	<path class="st7" d="M719.1,94.3c-7.7,8.9-15.5,17.7-23.5,26.8c4.8,7.1,9.5,14.2,14.1,21.2c4.7,7,9.4,14,14.5,21.7
		c-7.7,0-14.4,0.2-21.2-0.1c-1.4-0.1-3.1-1.7-4-3c-5.8-8.1-11.4-16.3-17.8-24.5c-1.6,0.9-2.4,1.9-3.2,2.9c0,0,0-0.1-0.3,0
		c-0.7,0.8-1.2,1.5-1.6,2.2c0,0,0,0.4-0.5,0.6c-1.7,1.4-3.8,2.6-4,4c-0.6,4.1-0.8,8.3-0.5,12.4c0.2,3.2-0.7,5-4,5.5
		c-0.8,0.1-1.7,0.1-3.2-0.1c-2.2-1.3-3.7-2.3-4.8-3c-1.6,0.8-3.3,1.7-5,2.5c-0.1-20.7-0.2-41.4,0.2-62.6c0.8-1,1.6-1.6,1.5-2
		c-1.5-6.7,2.7-6.8,7.3-6.4c1.2,0.1,2.3,0,3.5,0c3.4,0,5.4,1.8,5.3,5.1c-0.1,5.8-0.7,11.5-0.7,17.3c0,2.2,1.1,4.4,1.8,6.7
		c6.3-7,12.7-13.9,19.7-21c1.5-1.5,2.4-2.8,3.3-4.1c0,0,0.1,0.1,0.4,0.1c1.2-0.1,2.6-0.1,2.7-0.4c1.3-4.7,5.1-3.5,8.4-3.6
		c2.6-0.1,5.3-0.2,7.9,0.1C716.6,92.4,717.8,93.5,719.1,94.3z"/>
	<path class="st8" d="M255.9,182.4c-4.3,7.5-8.5,15.1-12.8,22.6c-7.8,13.6-15.6,27.2-23.4,40.8c-2.6,4.6-5.1,9.2-7.6,14.1
		c-10.5,4.5-21.4,5.8-32.9,5.7c4.8-8.3,10.1-16.2,15.1-24.3c4.2-6.9,8.2-13.9,12.1-20.9c5.1-8.9,10.1-17.9,15.8-27
		C233.9,189.5,244.9,185.9,255.9,182.4z"/>
	<path class="st9" d="M594.2,244.2c0-15.1,0-30.2,0-46.4c-6.6,2.1-12.5,3.9-18.9,5.9c-1.6-4.5-3.3-9.3-5.1-14.1
		c17.8-11.4,50.4-11.3,67,0.2c-1.6,4.6-3.3,9.2-5,13.8c-5.5-1.6-10.8-3.2-16.1-4.6c-0.9-0.2-1.9,0.3-3.4,1c-0.9,1.9-1.6,3.4-1.5,4.9
		c0.1,4.6,0.8,9.1,0.8,13.6c0.1,10,0.1,20.1-0.2,30.1c-0.1,2.9-1.3,5.9-5.5,5.6c-2.9-0.2-5.8,0.2-8.7-0.3c-1-0.2-2.1-2.1-2.5-3.5
		C594.5,248.4,594.4,246.2,594.2,244.2 M602,202.8c0-2,0-4,0-6c-0.6,0-1.2,0-1.8,0c0,16.3,0,32.7,0,49c0.3-0.1,1.2-0.2,1.2-0.3
		C601.6,231.6,601.8,217.7,602,202.8z"/>
	<path class="st10" d="M322.9,68.8c-3.7,5.9-7.6,11.4-11,17.2c-7.9,13.2-15.5,26.5-23.2,39.8c-1.3,2.3-2.6,4.6-4.3,6.8
		c-4.8-7.9-9.1-15.6-13.5-23.4c2.9-5.7,5.7-11.5,8.9-17.1c6.4-11.3,13.1-22.3,19.4-33.6c2.3-4,3.8-8.4,6.2-13c1.3-0.7,2.2-1.1,3-1.4
		C313.2,52.2,318,60.3,322.9,68.8z"/>
	<path class="st11" d="M688,212.2c2-0.1,4-0.1,6.8-0.2c1.3-4.6,1.7-9.2,2.2-13.7c0.2-2.5,0.5-5.1,0.9-8.8c-0.3-0.5-1.1-2.4-1.9-4
		c1.7-1.3,2.9-2.3,4-3.2c4.6,0,9.2,0,14.1,0c0,20.5,0,40.7-0.4,61.4c-0.8,3.7-1.2,6.8-1.6,9.8c-5.5-0.5-10.1-0.9-15.6-1.4
		c0.5-9.2,1-17.6,1.6-26c0,0,0,0-0.4,0.1c-0.2,0-0.7,0-0.7,0c0,0,0,0-0.1-0.4c-7.3-0.8-14.5-1.2-21.8-1.7c-2.4-0.2-4.8-0.6-7.1-1.4
		c1.8-1.5,3.4-3.1,5.3-3.5c3.7-0.7,7.5-0.8,11.3-1.1C688.8,217.9,689.4,215.6,688,212.2z"/>
	<path class="st12" d="M687.6,212.1c1.8,3.5,1.2,5.8-3,6.1c-3.8,0.3-7.6,0.3-11.3,1.1c-1.9,0.4-3.5,2-5.6,3.6
		c-0.1,1.7,0.1,2.9,0.2,4.1c-0.7,1.2-1.8,2.3-1.9,3.6c-0.2,4.2-0.1,8.5-0.4,13.4c-0.7,3.7-1.1,6.7-1.5,9.6c-2.2-0.5-4.4-1.6-4.8-1.1
		c-2.8,3.1-5.6,0.4-8-0.1c-4.2-0.8-2.5-4.4-2.5-7.3c0.2-17.7,0.2-35.4,0.1-53.1c0-2-1.2-3.9-1.8-5.9c-0.1-0.5-0.1-0.9,0.3-1.7
		c1.9-0.9,3.3-1.6,4.7-2.2c4.5,0,8.9,0,14,0c0,8.4-0.1,16.6,0.1,24.8c0,1.6,0.7,3.2,1.6,5.3c4.2,5.6,13.8,5.1,16.4-0.3
		C685.1,212.1,686.1,212.1,687.6,212.1z"/>
	<path class="st13" d="M668.5,227c-0.6-1.3-0.8-2.5-0.7-3.8c2.6,0.2,5,0.7,7.4,0.9c7.2,0.5,14.5,0.9,21.6,1.7c0,0.4,0.1,0.3,0.2,0.3
		c0,0,0.5,0,0.7,0s0.2,0,0.2,0c-0.5,8.4-0.9,16.8-1.5,26c5.5,0.5,10.1,0.9,15.6,1.4c0.4-3,0.8-6.1,1.5-9.3c0.3,3.4,0.3,6.9,0.3,10.7
		c-6.1,0-12.2,0-18.8,0c0-9,0-18.1,0-27.7C686.1,227.1,677.5,227.1,668.5,227z"/>
	<path class="st14" d="M593.6,94.5c-2.1-0.8-4.2-2.1-6.3-2.2c-10.7-0.7-11.3-0.1-11.3,10.6c0,18.1,0,36.2,0,54.3
		c0,1.8-0.3,3.6-0.7,5.7c-0.5-1.5-0.8-3.3-0.8-5.1c0-20.4,0-40.9,0-61.3c0-1.6,0-3.3,0-5.4c6.3,0,12.2,0,18.1,0.1
		c0.4,0,0.8,0.8,1,1.9C593.2,93.9,593.3,94.2,593.6,94.5C593.6,94.4,593.6,94.4,593.6,94.5z"/>
	<path class="st15" d="M308.2,43.7c-0.7,0.7-1.6,1.1-2.7,1.5c-3.1-0.3-5.9-1-8.7-1c-16.3-0.1-32.6-0.2-48.9,0
		c-5.7,0.1-11.3,1.3-17.4,1.9c0.3-1.3,0.9-2.6,1.4-3.6c12.8,0,25.2,0,37.6,0c11.8,0,23.6,0,35.4,0C306,42.6,307,43,308.2,43.7z"/>
	<path class="st3" d="M930.3,240.2c0.4,4.5,0.8,8.9,1.1,12.3c3.2,0.6,5.5,0.9,7.7,1.6c5,1.5,7.8-0.3,7.8-5.6
		c0.1-13.6,0.1-27.2,0-40.8c0-2.6-0.6-5.2-0.8-8.3c0.9,2.5,2.5,5.5,2.6,8.5c0.3,15.6,0.1,31.2,0.1,47.3c-5.8,0-11.4,0.1-17-0.1
		c-0.7,0-1.3-1.3-1.8-2.9C930.2,247.5,930.3,243.8,930.3,240.2z"/>
	<path class="st16" d="M728,203.6c0.4,0.7,0.9,1.8,0.9,2.9c-0.2,14.4-0.5,28.9-0.5,43.3c0,1.2,2,3.3,3.3,3.4
		c2.6,0.3,5.2-0.7,7.9-0.8c1.2,0,2.4,0.8,5.1,1.7c0-3.4-0.1-6.4,0-9.3c0.1-1.7,0.4-3.4,0.9-5.3c0.3,4.9,0.3,10,0.3,15.5
		c-6.1,0-12.2,0-18.9,0c0-2,0-4.1,0-6.1c0-12.3,0-24.6,0.1-36.9C727.1,209.2,727.6,206.6,728,203.6z"/>
	<path class="st17" d="M647,186.6c0.7,1.5,1.9,3.5,1.9,5.4c0.1,17.7,0,35.4-0.1,53.1c0,2.9-1.7,6.4,2.5,7.3c2.5,0.5,5.2,3.2,8,0.1
		c0.5-0.5,2.6,0.5,4.8,1.1c0.4-2.9,0.8-5.8,1.5-9.1c0.3,3.2,0.3,6.6,0.3,10.4c-6.2,0-12.3,0-18.9,0
		C646.9,232.2,646.9,209.7,647,186.6z"/>
	<path class="st18" d="M811.6,182.2c-1.1,0.9-2.6,1.8-5,3.1c-2.3,4.3,2.7,4.4,6.8,6.6c-7.6,0.3-6.5,4.8-6.4,8.7
		c0.3,7.7-1.3,15.6,2.8,22.8c0.5,0.9,0.1,2.3,0,3.9c-1.6-3.8-4.2-8.1-4.5-12.4c-0.6-10.7-0.2-21.5-0.2-32.8
		C807.3,182.1,809.2,182.1,811.6,182.2z"/>
	<path class="st17" d="M594.1,244.6c0.4,1.6,0.4,3.8,1,5.8c0.4,1.3,1.5,3.3,2.5,3.5c2.8,0.5,5.8,0.1,8.7,0.3
		c4.2,0.3,5.4-2.7,5.5-5.6c0.4-10,0.3-20.1,0.2-30.1c0-4.5-0.7-9.1-0.8-13.6c0-1.5,0.7-3,1.4-4.6c0.4,18.1,0.4,36.2,0.4,54.6
		c-6.1,0-12.2,0-18.9,0C594,251.6,594,248.3,594.1,244.6z"/>
	<path class="st14" d="M496,113.6c0.4,1.2,1,2.8,1,4.3c0.1,15,0,30,0,45.4c-0.6,0.1-1.7-0.3-1.7-0.6
		C495.4,146.4,495.7,130.2,496,113.6z"/>
	<path class="st19" d="M673,120.7c-0.6-1.7-1.8-4-1.8-6.2c0-5.8,0.6-11.5,0.7-17.3c0.1-3.3-1.9-5.1-5.3-5.1c-1.2,0-2.3,0.1-3.5,0
		c-4.6-0.4-8.9-0.3-7.3,6.4c0.1,0.4-0.7,1-1.4,1.5c-0.4-2.7-0.4-5.6-0.4-8.8c6,0,12.1,0,18.9,0C673,100.8,673,110.5,673,120.7z"/>
	<path class="st20" d="M540.5,248.5c1.1,0.8,2.6,1.7,3.6,3c2.1,3,4.6,3.2,7.8,1.8c1.1-0.5,2.6-0.3,4-0.3c1.3,0,2.6,0.1,3.9,0.2
		c0.1-1.4,0.3-2.8,0.2-4.1c-0.1-1.1-0.6-2.2-0.9-3.7c2.1,2.7,4.2,5.8,6.9,9.7c-7.4,0-13.8,0.5-20.1-0.3
		C543.9,254.6,542.4,250.9,540.5,248.5z"/>
	<path class="st17" d="M699.6,182.2c-0.7,1-1.9,1.9-3.6,3.3c0.7,1.6,1.6,3.4,1.9,4c-0.4,3.7-0.6,6.3-0.9,8.8
		c-0.4,4.6-0.9,9.1-1.8,13.7c-0.4-9.7-0.4-19.5-0.4-29.8C696.6,182.2,697.9,182.2,699.6,182.2z"/>
	<path class="st3" d="M882.2,253.5c4.3,0,8.5,0.3,12.7,0.7c3.7,0.4,5-1.5,5.1-4.9c0.2-3.7,0.7-7.3,1.4-11.1c0.4,5.5,0.4,11,0.4,17
		c-6.6,0-12.5,0-18.4-0.1C883,255.1,882.6,254.3,882.2,253.5z"/>
	<path class="st13" d="M441.4,237.8c-0.2-1.2-0.1-2.3,0.1-3.5c7,3.3,14,1.3,20.9,1.9c1.8,0.2,3.6,0.7,5.6,1.5
		c-2.3,0.4-4.7,0.3-7.6,0.1c-0.8-0.4-1.1-0.3-1.3,0c-4.4,0.1-8.8,0.1-13.7,0c-0.9-0.4-1.1-0.3-1.3,0
		C443.3,237.8,442.5,237.9,441.4,237.8z"/>
	<path class="st11" d="M683.5,212.1c-2.1,5.5-11.7,5.9-15.5,0.5C673,212.1,678.1,212.1,683.5,212.1z"/>
	<path class="st21" d="M464.9,91.6c-10.2,0.4-20.8,0.5-31.4,0.5c-9.1,0-9.1,0-11,7.9c-0.3-2.9-0.3-5.8-0.3-8.7
		C436.5,91.4,450.5,91.4,464.9,91.6z"/>
	<path class="st22" d="M421,253.6c2.8-0.7,5.6-1.1,8.4-1.2c1,0,2,1,3.1,1.1c1.7,0.2,3.8,0.6,5.1-0.2c1-0.6,1.1-2.9,1.2-4.5
		c0.3-3,0.4-6.1,0.9-9.4c0.3,4.8,0.3,9.9,0.3,16.2C433.5,255.1,427.2,254.5,421,253.6z"/>
	<path class="st20" d="M667.6,163.9c2.8-0.5,3.7-2.3,3.5-5.6c-0.2-4.1-0.1-8.3,0.5-12.4c0.2-1.4,2.3-2.5,3.9-3.8
		c-3.4,3.7-2.4,8.4-2.5,12.9c0,2.8,0,5.6,0,8.9C671.1,163.9,669.5,163.9,667.6,163.9z"/>
	<path class="st19" d="M774.8,243.6c0.5,1,1.2,2.5,1.2,3.9c0,6.2,3.3,9.1,8.7,6.2c3.5-1.9,5.3-0.4,8.1,0.9c-6,0.2-12.2,0.2-18.1,0.2
		C774.6,251.2,774.6,247.6,774.8,243.6z"/>
	<path class="st23" d="M719.4,94.1c-1.6-0.6-2.8-1.7-4.1-1.9c-2.6-0.3-5.3-0.1-7.9-0.1c-3.2,0.1-7-1.2-8.4,3.6
		c-0.1,0.3-1.5,0.3-2.7,0.3c1.6-4.3,5-5.5,9.6-5.2c5.2,0.4,10.4,0.1,16.4,0.1C721.1,92.4,720.4,93.2,719.4,94.1z"/>
	<path class="st3" d="M885.8,196.6c-0.8,4.9-1.8,10.1-3.2,15.5C883.4,207.1,884.5,202,885.8,196.6z"/>
	<path class="st20" d="M519.3,248.8c-3.6-4.1-1.3-8.7,0-13.4C519.6,239.6,519.5,244,519.3,248.8z"/>
	<path class="st20" d="M654.3,163.5c1.5-1.2,3.2-2.1,4.8-2.9c1.1,0.7,2.6,1.7,4.4,2.9C660.7,163.8,657.6,163.8,654.3,163.5z"/>
	<path class="st3" d="M930.3,239.9c0,4-0.1,7.7-0.2,11.8c-0.2-3.9-0.3-8.3-0.4-13.1C929.9,238.6,930,239.1,930.3,239.9z"/>
	<path class="st21" d="M472.8,93.8c-2.4-0.2-5-0.7-7.6-1.6C467.7,92.4,470.1,93,472.8,93.8z"/>
	<path class="st20" d="M521.4,234.8c-0.3-2.1,0.1-3.5,2.5-1.9c1,0.7,2.3,1,3.7,1.6C525.9,234.8,523.9,234.9,521.4,234.8z"/>
	<path class="st3" d="M902.4,238c1.4-3.3,3.8-2,6.4-0.5C906.9,237.9,904.9,238,902.4,238z"/>
	<path class="st20" d="M532.3,234.9c0.6-0.3,1.9-0.9,2.1-0.7c0.7,0.8,0.9,2,0.9,3.2C534.2,236.7,533.4,235.8,532.3,234.9z"/>
	<path class="st22" d="M421,241.6c0.3,1.9,0.6,4.1,0.4,6.5C421,246.1,420.9,244.1,421,241.6z"/>
	<path class="st21" d="M478.9,97.8c-1.8-0.8-3.8-1.9-5.8-3.4C474.9,95.2,476.8,96.4,478.9,97.8z"/>
	<path class="st3" d="M923.4,237.9c1.5-0.3,3.5-0.5,5.5-0.4C927.3,237.9,925.6,238,923.4,237.9z"/>
	<path class="st14" d="M593.8,99.6c-1.7,0.3-3.4,0.3-5.1,0.3c-0.1-0.4-0.1-0.9-0.2-1.3c1.4-0.1,2.8-0.3,4.6-0.4
		C593.7,98.6,593.7,99,593.8,99.6z"/>
	<path class="st17" d="M651.6,182.2c-1,0.7-2.4,1.3-4.2,1.9C648.4,183.5,649.8,182.8,651.6,182.2z"/>
	<path class="st20" d="M678.4,139.2c0.5-0.9,1.4-1.9,2.6-2.9C680.5,137.2,679.6,138.1,678.4,139.2z"/>
	<path class="st23" d="M695.6,96.2c-0.6,1.2-1.5,2.5-2.7,3.8C693.5,98.8,694.4,97.6,695.6,96.2z"/>
	<path class="st22" d="M421.1,207.6c0.2,1.4,0.3,3.2,0.2,5.3C421,211.4,421,209.7,421.1,207.6z"/>
	<path class="st20" d="M537.6,242.8c0.7,1,1.6,2.3,2.4,3.9C539.2,245.8,538.5,244.5,537.6,242.8z"/>
	<path class="st20" d="M676.4,141.3c0.1-0.6,0.6-1.3,1.4-2.1C677.6,139.9,677.2,140.5,676.4,141.3z"/>
	<path class="st3" d="M946.2,198.7c-0.3-0.2-0.7-0.7-1.1-1.6C945.5,197.3,945.8,197.9,946.2,198.7z"/>
	<path class="st20" d="M535.8,239.4c0.3,0.2,0.7,0.7,1.1,1.5C536.6,240.7,536.2,240.2,535.8,239.4z"/>
	<path class="st16" d="M729.6,199.1c0.1,0.4,0,1-0.3,1.8C729.1,200.5,729.2,199.9,729.6,199.1z"/>
	<path class="st6" d="M593.7,94.2c-0.4,0-0.5-0.3-0.2-0.8C593.8,93.5,593.9,93.7,593.7,94.2z"/>
	<path class="st20" d="M517.3,255c-0.2-0.3,0-0.5,0.5-0.8C517.8,254.4,517.7,254.7,517.3,255z"/>
	<path class="st20" d="M518.8,254.3c0,0,0.2,0,0.2,0S518.9,254.2,518.8,254.3C518.9,254.4,518.9,254.3,518.8,254.3z"/>
	<path class="st20" d="M536.9,241.5c0.2,0,0.5,0.2,0.7,0.8C537.4,242.3,537.2,242,536.9,241.5z"/>
	<path class="st5" d="M459.3,237.8c0-0.4,0.2-0.5,0.6-0.2C460,237.8,459.5,237.9,459.3,237.8z"/>
	<path class="st5" d="M444.3,237.8c0-0.4,0.2-0.5,0.6-0.2C445,237.8,444.5,237.9,444.3,237.8z"/>
	<path class="st16" d="M729.9,198.3c0.3,0,0.4,0.2,0.5,0.4c-0.1,0.1-0.2,0.1-0.5,0.2C729.7,199,729.8,198.5,729.9,198.3z"/>
	<path class="st24" d="M349,184c0.3-1.7,1-3.3,1.9-5.3c-6.6-5.1-13.5-9.3-22.5-11c-2.3-0.7-4-1.1-5.6-1.5c7.4-0.7,14.1,0.9,20.4,4.9
		c2.3,1.4,5.3,1.7,7.4,3.2c1.6,1.2,2.9,3.6,3,5.6C353.8,182.2,352.8,184.8,349,184z"/>
	<path class="st24" d="M332.6,212.1c4.7-8.9,9.8-17.8,15.1-27c-0.4,2.2-0.8,4.8-1.9,7.1c-3.1,6.1-6.5,12.1-9.9,18.1
		C335.4,211.2,333.9,211.5,332.6,212.1z"/>
	<path class="st25" d="M322.3,166.3c2.1,0.4,3.7,0.8,5.7,1.5c-8.5,0.3-17.4,0.3-26.7,0.3c0.4-0.4,1.2-0.7,2.4-1.1
		C309.9,166.7,315.9,166.5,322.3,166.3z"/>
	<path class="st26" d="M814.1,210.4c-0.1-4.8-0.1-9.2-0.1-13.5c0.7,0,1.4,0,2,0c-0.3,4.9-0.5,9.8-0.8,14.6
		C814.9,211.2,814.5,211,814.1,210.4z"/>
	<path class="st19" d="M441.3,223.6c8.4-0.3,17-0.4,26.2-0.5c-2.2,0.3-4.9,1-7.6,1C453.8,224.2,447.7,223.9,441.3,223.6z"/>
	<path class="st19" d="M746.1,223.3c8.7-0.3,17.3-0.2,26.4-0.1c-5.4,0.4-11.2,0.5-17,1c-2.7,0.2-5.3,1-8,1.2
		C747.1,225.5,746.5,224.3,746.1,223.3z"/>
	<path class="st3" d="M901.4,208.2c0.4,4.7,0.4,9.5,0.4,14.8c9,0,18.1,0,27.6-0.1c0.7,2.7-0.2,3.6-3,2.7c-1.5-0.5-3.4,0-5.1,0.1
		c-1.1,0.1-2.3,0.1-3.4,0.5c-4.8,1.6-9.2-3.7-14.1-0.6c-0.5,0.3-3.6-1.8-3.9-3.1C898.7,217.7,897.5,212.7,901.4,208.2z"/>
	<path class="st3" d="M909.1,198.2c-1.2,1.3-2.7,2.6-4.6,4C904.2,199.3,903.7,195.7,909.1,198.2z"/>
	<path class="st3" d="M903.9,202.3c-0.3,1.4-0.9,2.8-1.8,4.5C902.5,205.5,903,203.9,903.9,202.3z"/>
	<path class="st26" d="M602,203.3c-0.2,14.4-0.4,28.3-0.6,42.3c0,0.1-0.9,0.2-1.2,0.3c0-16.4,0-32.7,0-49c0.6,0,1.2,0,1.8,0
		C602,198.8,602,200.8,602,203.3z"/>
	<path class="st13" d="M698,226.1c0.1,0,0.2-0.1,0.1-0.1C698,226.1,698,226.1,698,226.1z"/>
	<path class="st11" d="M697,226.1c-0.1,0-0.2,0.1-0.2,0C697,226.1,697,226.1,697,226.1z"/>
</g>
</svg>
