<svg version="1.1" id="Layer_1" xmlns="http://www.w3.org/2000/svg" xmlns:xlink="http://www.w3.org/1999/xlink" x="0px" y="0px"
	 width="100%" viewBox="0 0 902 309" enable-background="new 0 0 902 309" xml:space="preserve">
<path fill="#FFFEFF" opacity="1.000000" stroke="none" 
	d="
M576.000000,310.000000 
	C384.000000,310.000000 192.500000,310.000000 1.000000,310.000000 
	C1.000000,207.000000 1.000000,104.000000 1.000000,1.000000 
	C301.666656,1.000000 602.333313,1.000000 903.000000,1.000000 
	C903.000000,104.000000 903.000000,207.000000 903.000000,310.000000 
	C794.166687,310.000000 685.333313,310.000000 576.000000,310.000000 
M640.861023,203.904099 
	C640.861023,203.904099 640.795898,203.775955 640.304199,204.162567 
	C640.182312,204.766998 640.060425,205.371445 639.484070,206.348160 
	C639.375061,206.906982 639.265991,207.465805 638.896973,208.821213 
	C638.600037,211.448868 638.067078,214.074692 638.046509,216.704514 
	C637.950256,228.992752 637.995239,241.282120 637.990051,253.571075 
	C637.989197,255.653275 637.989990,257.735474 637.989990,259.706848 
	C644.772278,259.706848 650.842224,259.706848 656.937866,259.706848 
	C656.937866,254.274353 656.937866,249.154785 657.425537,243.305878 
	C666.605957,243.305878 675.786438,243.305878 685.061646,243.305878 
	C685.331909,244.852173 685.610229,246.444870 685.630371,248.906631 
	C685.630371,252.476273 685.630371,256.045898 685.630371,259.701996 
	C691.525513,259.701996 697.740112,259.701996 704.693970,259.346252 
	C704.744324,244.880463 705.143188,230.405106 704.746765,215.951569 
	C704.351257,201.536362 696.745361,191.528015 683.815796,187.595306 
	C675.024719,184.921356 666.055542,184.933502 657.361755,188.046753 
	C649.931458,190.707581 643.948486,195.251083 640.778931,203.371582 
	C640.778931,203.371582 640.738098,203.829620 640.861023,203.904099 
M447.939636,246.590561 
	C448.158081,246.859238 448.376526,247.127899 448.605682,247.249100 
	C448.605682,247.249100 448.500671,247.353180 448.703064,247.988205 
	C449.473907,249.318283 450.244720,250.648376 451.082489,252.546448 
	C451.197418,252.698563 451.312347,252.850662 451.660797,253.653366 
	C453.373352,255.766754 454.888550,259.459167 456.834808,259.702423 
	C463.093384,260.484589 469.511108,259.993530 476.912323,259.993530 
	C474.241608,256.066620 472.151367,252.993210 469.931702,249.238846 
	C467.243652,244.945618 464.555603,240.652405 461.856140,236.340988 
	C462.954498,235.520065 463.615265,235.031372 464.270660,234.535599 
	C474.158722,227.056152 476.044373,216.750153 473.614197,205.536423 
	C471.302612,194.870010 463.568573,188.729340 453.157776,188.026321 
	C439.335022,187.092911 425.401764,187.796127 411.406128,187.796127 
	C411.406128,211.567993 411.406128,235.586563 411.406128,259.853271 
	C417.118378,259.853271 422.566071,259.853271 428.552856,259.915588 
	C428.691986,259.607971 428.831146,259.300354 429.532227,258.738861 
	C429.655792,258.903107 429.779388,259.067352 429.872803,259.063171 
	C429.872803,259.063171 430.034515,259.206360 430.034515,259.206360 
	C430.034515,259.206360 429.794769,259.163849 430.097443,258.343811 
	C430.128540,256.914215 430.159637,255.484634 430.479980,253.296906 
	C430.525055,248.862534 430.570129,244.428162 431.320343,239.863144 
	C431.542908,239.775879 431.765442,239.688629 432.837372,239.809525 
	C434.867340,239.755295 436.897339,239.701080 439.729523,239.827911 
	C440.817444,239.760742 441.905334,239.693573 443.552734,239.860245 
	C444.355408,240.692429 445.158051,241.524628 446.016022,242.973404 
	C446.253723,243.293243 446.491425,243.613098 446.851959,244.567368 
	C447.210052,245.078171 447.568176,245.588959 447.987671,246.030334 
	C447.987671,246.030334 447.897614,246.052139 447.939636,246.590561 
M589.026855,144.025284 
	C589.026855,144.025284 589.065247,144.108734 589.698303,143.931702 
	C590.600525,143.008347 591.502686,142.084991 593.031006,141.293472 
	C598.703674,149.444611 604.318726,157.637100 610.106384,165.705734 
	C611.057739,167.031998 612.729004,168.641983 614.133240,168.707245 
	C620.872437,169.020386 627.634216,168.847900 635.303650,168.847900 
	C630.140686,161.122849 625.461426,154.123322 620.783997,147.122574 
	C616.089233,140.095947 611.396362,133.068069 606.637207,125.942619 
	C614.601257,116.834839 622.348022,107.975601 630.696594,98.895973 
	C631.392029,98.067574 632.087524,97.239174 633.264343,95.837410 
	C627.346680,95.837410 622.106750,96.116844 616.911743,95.753662 
	C612.319336,95.432602 608.924622,96.652199 606.997742,100.980209 
	C606.997742,100.980209 606.922180,100.898277 606.350525,101.218704 
	C605.409912,102.428658 604.469360,103.638611 602.976379,105.173759 
	C596.642578,112.135635 590.308777,119.097511 583.990845,125.114365 
	C583.990845,115.386887 583.990845,105.659416 583.990845,96.168533 
	C577.141541,96.168533 571.061096,96.168533 565.063232,96.168533 
	C565.063232,99.356155 565.063232,102.173920 564.874329,105.913605 
	C564.968750,126.612389 565.063171,147.311172 565.521301,168.742218 
	C568.630188,168.703568 571.739014,168.664932 575.658691,168.814514 
	C576.483765,168.752411 577.308777,168.690292 578.975342,168.809708 
	C580.549500,168.809708 582.123596,168.809708 584.022827,168.809708 
	C584.022827,165.485718 583.998596,162.700165 584.028320,159.915192 
	C584.076355,155.419388 583.094727,150.691986 587.060791,146.646332 
	C587.060791,146.646332 587.092651,146.231750 587.716492,146.058167 
	C588.181274,145.392990 588.645996,144.727814 589.026855,144.025284 
M384.019592,99.007339 
	C384.019592,99.007339 384.056000,98.958099 383.554504,98.414482 
	C381.119995,97.819031 378.685516,97.223579 376.145355,96.683662 
	C376.145355,96.683662 376.222137,96.775047 375.558014,96.219727 
	C361.524994,96.219727 347.491974,96.219727 333.155151,96.219727 
	C333.155151,99.134972 333.155151,102.068649 333.012238,105.929634 
	C333.012238,126.840759 333.012238,147.751877 333.012238,168.823578 
	C346.066864,168.823578 358.420502,169.383316 370.686798,168.590698 
	C376.949219,168.186020 383.763519,166.547226 389.088226,163.380798 
	C401.246155,156.150848 399.753815,137.634583 387.109833,131.297363 
	C386.157379,130.819992 385.215942,130.320679 384.039093,129.712555 
	C396.019775,123.376480 398.485718,111.650581 389.750336,102.383072 
	C387.845001,101.238335 385.939667,100.093590 384.019592,99.007339 
M840.343445,242.966064 
	C840.343445,242.966064 840.673035,243.003189 840.702637,243.918213 
	C840.800964,248.280106 840.899231,252.641983 840.897400,257.890106 
	C841.537170,258.597900 842.159546,259.900757 842.819397,259.920013 
	C848.422729,260.083618 854.032898,260.013550 859.818604,260.013550 
	C859.818604,243.939774 859.956055,228.336670 859.698547,212.740112 
	C859.649170,209.749512 858.046570,206.784546 857.118958,203.911041 
	C857.118958,203.911041 857.230225,203.906906 857.138855,203.262558 
	C856.808594,202.720047 856.478394,202.177551 856.037415,200.970932 
	C851.357422,192.487366 843.775269,188.323364 834.592224,186.480774 
	C818.669983,183.285980 804.368164,188.895004 796.607666,201.737411 
	C795.511780,206.844574 794.415955,211.951736 793.172241,217.977570 
	C793.216064,231.295471 793.259888,244.613373 793.147278,258.784790 
	C793.566772,259.191620 793.981689,259.947113 794.406372,259.952667 
	C800.314636,260.030304 806.224243,260.005249 812.837585,260.005249 
	C812.837585,254.069366 812.837585,248.496124 812.928955,242.951675 
	C812.928955,242.951675 812.932922,242.855957 813.818726,242.894363 
	C815.874268,242.827438 817.929749,242.760513 820.908020,242.826050 
	C825.274902,242.781784 829.641724,242.737518 834.853943,242.906387 
	C836.595276,242.860016 838.336548,242.813629 840.343445,242.966064 
M371.840851,242.812393 
	C374.234802,242.846786 376.628784,242.881180 379.119141,243.858124 
	C379.119141,249.126678 379.119141,254.395218 379.119141,260.004150 
	C384.511108,260.004150 389.310852,259.935547 394.107513,260.028168 
	C397.329590,260.090363 398.629547,258.823212 398.598816,255.464554 
	C398.478516,242.316071 398.712708,229.164017 398.560791,216.016235 
	C398.389832,201.222855 389.687134,190.286270 375.288330,187.067322 
	C370.814392,186.067169 366.046082,185.908783 361.437531,186.071609 
	C345.422638,186.637451 334.875305,196.160858 332.017975,212.864487 
	C332.032043,214.567719 332.046143,216.270950 331.863953,218.897064 
	C331.929901,227.938705 331.995850,236.980331 331.877686,246.878082 
	C331.939301,248.916306 332.000946,250.954529 331.866455,253.810928 
	C331.926453,255.206238 331.986481,256.601532 331.916077,258.870331 
	C338.196869,259.393738 344.477661,259.917145 350.840790,260.447449 
	C350.840790,254.193375 350.840790,249.110138 351.055145,243.414520 
	C351.373962,243.134903 351.692810,242.855270 352.753693,242.777344 
	C353.516388,242.727798 354.279053,242.678253 355.504272,242.788498 
	C355.504272,242.788498 355.966644,242.628448 356.885254,242.807037 
	C361.266968,242.747787 365.648651,242.688538 370.495789,242.789719 
	C370.495789,242.789719 370.962189,242.632111 371.840851,242.812393 
M504.813141,98.901123 
	C504.889648,98.608376 504.830811,98.345947 504.760345,97.253304 
	C504.374969,96.806107 503.994995,95.974808 503.603424,95.969299 
	C497.693939,95.886253 491.782898,95.911705 485.500549,95.911705 
	C485.500549,98.081032 485.500977,99.717041 485.500458,101.353058 
	C485.493622,121.779274 485.473907,142.205505 485.501892,162.631683 
	C485.504333,164.421402 485.819305,166.210693 486.440918,168.730911 
	C492.515686,168.730911 498.590485,168.730911 504.838745,168.730911 
	C504.838745,166.367218 504.835663,164.709183 504.839233,163.051163 
	C504.865631,150.897202 504.668549,138.737152 504.997009,126.591331 
	C505.228821,118.020233 512.032959,111.960884 520.332825,112.169540 
	C527.979126,112.361755 532.655273,117.696136 532.825073,126.599068 
	C532.926636,131.925293 532.841492,137.255081 532.841248,142.583267 
	C532.840820,151.190567 532.841187,159.797852 532.841187,168.619690 
	C539.486389,168.619690 545.555969,168.619690 551.820251,168.619690 
	C551.820251,150.464859 552.705017,132.480331 551.525879,114.632164 
	C550.662842,101.568863 538.059265,93.468536 525.017517,94.530113 
	C516.644348,95.211678 510.620880,99.655663 504.793091,104.193443 
	C504.733765,103.819077 504.674438,103.444717 504.835388,102.347015 
	C504.753357,101.349174 504.671295,100.351341 504.577301,99.303398 
	C504.577301,99.303398 504.591797,99.253983 504.813141,98.901123 
M578.174377,216.838928 
	C577.778320,215.228424 577.062805,213.622452 577.040039,212.006668 
	C576.923645,203.766251 576.986267,195.523285 576.986267,187.170151 
	C571.909790,187.170151 567.452332,187.170151 562.174744,187.034546 
	C560.792297,187.694061 559.409790,188.353592 557.837097,189.676422 
	C557.910950,190.127060 557.984802,190.577698 557.892700,191.947769 
	C557.892700,214.527435 557.892700,237.107117 557.892700,259.713409 
	C564.519287,259.713409 570.591919,259.713409 576.839294,259.713409 
	C576.839294,255.951843 576.839294,252.486145 576.985046,248.092499 
	C576.991760,243.861771 576.853088,239.622650 577.096191,235.405548 
	C577.166504,234.185410 578.332458,233.028442 579.925598,231.979095 
	C588.524414,231.979095 597.123230,231.979095 606.178711,231.979095 
	C606.178711,241.625320 606.178711,250.697601 606.178711,259.716187 
	C612.736389,259.716187 618.822693,259.716187 624.934875,259.716187 
	C624.934875,255.941971 624.934875,252.469116 625.123596,248.075836 
	C625.123596,227.878128 625.123596,207.680420 625.123596,187.175476 
	C620.180420,187.175476 615.585510,187.175476 610.117493,187.025543 
	C608.857300,187.025543 607.597107,187.025543 605.810913,187.025543 
	C605.810913,197.336060 605.810913,207.118088 604.960144,216.869202 
	C602.974243,216.929764 600.988342,216.990326 598.214478,216.862869 
	C597.142212,216.926437 596.069946,216.990005 594.080688,216.865067 
	C589.054626,216.928833 584.028503,216.992584 578.174377,216.838928 
M219.091888,48.150539 
	C218.034195,47.907185 216.977173,47.455685 215.918716,47.452362 
	C204.130325,47.415394 192.341705,47.453285 180.553146,47.459782 
	C168.144165,47.466618 155.735199,47.461311 142.924377,47.461311 
	C142.437180,48.414833 141.768799,49.722958 140.583313,51.480759 
	C111.823364,101.271950 83.105530,151.087631 54.210148,200.800095 
	C52.251507,204.169800 52.404865,206.499283 54.324883,209.674454 
	C60.171417,219.342972 65.642418,229.237595 71.359566,238.985580 
	C77.473343,249.409805 83.700851,259.767334 90.522141,270.629761 
	C101.656860,270.483948 112.606209,269.247864 123.835640,265.071686 
	C138.458878,259.762848 153.011780,254.248978 167.724945,249.202362 
	C182.697815,244.066681 197.924759,239.964615 214.010406,242.994308 
	C218.022659,243.750015 221.935135,245.035385 225.961090,246.095108 
	C231.303360,237.120850 236.549286,228.308472 242.316376,220.033875 
	C252.003769,236.778900 261.691132,253.523911 271.845703,271.076477 
	C273.278290,268.789062 274.094391,267.588684 274.808136,266.330231 
	C280.779480,255.801880 286.669067,245.226562 292.709412,234.738068 
	C297.921021,225.688522 303.378448,216.779633 308.511353,207.686707 
	C309.249634,206.378830 309.444550,204.021179 308.759094,202.768951 
	C302.699280,191.698868 296.452240,180.729095 290.128906,169.805862 
	C277.976166,148.812485 265.780731,127.843506 253.516495,106.915092 
	C247.062439,95.901482 240.425690,84.994919 233.838806,73.330734 
	C229.019485,65.201439 224.200180,57.072151 219.091888,48.150539 
M505.024078,249.939240 
	C505.024078,253.200424 505.024078,256.461609 505.024078,259.711823 
	C511.778809,259.711823 517.861511,259.711823 523.933655,259.711823 
	C523.933655,241.276794 523.933655,223.144302 524.195068,204.347778 
	C525.169434,204.146011 526.243164,203.573135 527.101929,203.803070 
	C532.442444,205.233093 537.734741,206.843048 543.204712,208.440552 
	C544.871033,203.795532 546.534363,199.158783 548.166809,194.607956 
	C531.566284,183.114059 498.992950,183.017166 481.158783,194.382568 
	C482.879822,199.187775 484.622803,204.054276 486.222778,208.521484 
	C492.657318,206.517349 498.555359,204.680313 505.166473,202.621185 
	C505.166473,218.795715 505.166473,233.912292 505.024078,249.939240 
M406.871124,118.828377 
	C406.658813,135.067749 406.435211,151.307037 406.307434,167.547089 
	C406.304596,167.906952 407.393707,168.275421 408.896790,168.818451 
	C414.318237,168.818451 419.739685,168.818451 425.677551,168.818451 
	C425.677551,162.806824 425.677551,157.394547 425.677551,151.874115 
	C435.267029,151.874115 444.316559,151.874115 453.883911,151.874115 
	C453.883911,157.614212 453.883911,163.030579 453.883911,168.596680 
	C460.471924,168.596680 466.535767,168.596680 472.792480,168.596680 
	C472.792480,152.725952 473.209106,137.095764 472.630371,121.502495 
	C472.302917,112.678520 467.939056,105.213928 460.369904,100.239693 
	C450.908539,94.021957 440.351196,93.258270 429.656677,95.631157 
	C417.629181,98.299812 409.603363,105.487015 406.871124,118.828377 
M722.112793,187.001907 
	C720.190247,187.001907 718.267700,187.001907 716.167358,187.001907 
	C716.167358,198.310272 715.731506,209.084869 716.378723,219.793991 
	C716.643066,224.167343 719.253418,228.398895 720.902771,233.328094 
	C725.687073,240.304642 732.484619,243.541061 740.766357,244.015594 
	C749.167603,244.496994 756.053345,241.084824 762.088440,234.846573 
	C763.349731,249.253906 755.119324,257.052185 741.880859,254.282410 
	C735.982178,253.048279 730.352173,250.529999 724.062134,248.413528 
	C721.952820,251.947388 719.437195,256.161835 716.776978,260.618530 
	C728.890198,269.692719 742.179260,273.122009 756.552795,270.362457 
	C773.585754,267.092346 781.836182,256.356598 781.860474,239.045120 
	C781.882263,223.549820 781.868652,208.054474 781.870605,192.559158 
	C781.870789,190.795105 781.870667,189.031052 781.870667,187.272903 
	C775.049194,187.272903 768.965149,187.272903 762.437134,187.272903 
	C762.437134,196.185333 762.574707,204.822327 762.396851,213.452820 
	C762.231873,221.460510 756.626343,226.961609 748.874512,227.132965 
	C740.838440,227.310608 736.034058,222.899261 735.282288,214.438782 
	C735.032532,211.626968 735.170837,208.779007 735.165100,205.947495 
	C735.152527,199.702255 735.161194,193.456985 735.161194,187.143768 
	C730.631531,187.143768 726.818787,187.143768 722.112793,187.001907 
z"/>
<path fill="#741E48" opacity="1.000000" stroke="none" 
	d="
M89.878731,270.153961 
	C83.700851,259.767334 77.473343,249.409805 71.359566,238.985580 
	C65.642418,229.237595 60.171417,219.342972 54.324883,209.674454 
	C52.404865,206.499283 52.251507,204.169800 54.210148,200.800095 
	C83.105530,151.087631 111.823364,101.271950 141.243805,51.247292 
	C147.568954,50.341209 153.225769,49.180023 158.899811,49.088593 
	C175.201294,48.825924 191.510071,48.946289 207.815201,49.043961 
	C210.594833,49.060608 213.370682,49.708202 215.996185,50.396080 
	C213.971802,54.954494 212.418060,59.359829 210.166504,63.373745 
	C203.834564,74.661781 197.125336,85.737709 190.747696,97.000793 
	C187.589218,102.578720 184.832581,108.384178 181.592072,114.219475 
	C180.336990,115.692276 179.266907,116.964714 178.448608,118.382477 
	C166.572708,138.958450 154.702866,159.538055 142.897842,180.154739 
	C139.538055,186.022385 136.390244,192.011429 132.854553,198.137817 
	C127.512543,207.268372 122.487709,216.221024 117.401375,225.138596 
	C113.403404,232.147995 109.471573,239.201263 105.252441,246.076767 
	C100.272835,254.191452 95.015594,262.135773 89.878731,270.153961 
z"/>
<path fill="#D4A67A" opacity="1.000000" stroke="none" 
	d="
M233.871445,74.040016 
	C240.425690,84.994919 247.062439,95.901482 253.516495,106.915092 
	C265.780731,127.843506 277.976166,148.812485 290.128906,169.805862 
	C296.452240,180.729095 302.699280,191.698868 308.759094,202.768951 
	C309.444550,204.021179 309.249634,206.378830 308.511353,207.686707 
	C303.378448,216.779633 297.921021,225.688522 292.709412,234.738068 
	C286.669067,245.226562 280.779480,255.801880 274.808136,266.330231 
	C274.094391,267.588684 273.278290,268.789062 271.845703,271.076477 
	C261.691132,253.523911 252.003769,236.778900 242.113159,219.484222 
	C242.332291,218.292221 242.754654,217.649887 243.558578,217.003479 
	C244.943039,216.396698 246.369644,216.038147 246.880371,215.151840 
	C250.304901,209.208939 253.663605,203.219025 256.759308,197.100525 
	C257.884491,194.876678 258.231415,192.259094 258.974731,189.616165 
	C259.132019,189.140594 259.324951,188.946655 260.021179,188.878906 
	C263.791260,189.624756 264.812195,187.026443 264.663361,184.899155 
	C264.525604,182.930450 263.209595,180.500793 261.631073,179.310120 
	C259.530090,177.725372 256.435944,177.511032 254.184784,176.061432 
	C247.893677,172.010345 241.119217,170.461014 233.306763,171.145752 
	C226.905731,171.359985 220.948593,171.541855 214.755814,171.498169 
	C208.100052,160.161148 201.679916,149.049652 195.532043,137.747070 
	C197.079132,135.262848 198.319397,132.949661 199.634430,130.679825 
	C207.336349,117.385727 214.956146,104.042473 222.815308,90.841827 
	C226.241531,85.086945 230.170700,79.631470 233.871445,74.040016 
z"/>
<path fill="#741E48" opacity="1.000000" stroke="none" 
	d="
M243.177002,217.007553 
	C242.754654,217.649887 242.332291,218.292221 241.852570,219.215332 
	C236.549286,228.308472 231.303360,237.120850 225.961090,246.095108 
	C221.935135,245.035385 218.022659,243.750015 214.010406,242.994308 
	C197.924759,239.964615 182.697815,244.066681 167.724945,249.202362 
	C153.011780,254.248978 138.458878,259.762848 123.458389,264.719269 
	C125.621872,259.782745 128.114685,255.171280 130.712326,250.619629 
	C138.475952,237.015976 146.294022,223.443405 154.063980,209.843369 
	C158.359253,202.325150 162.600784,194.776230 167.146667,187.070770 
	C169.574219,186.043869 171.673904,185.031509 173.876984,184.356598 
	C186.508072,180.487000 199.163696,176.697510 212.290314,172.921509 
	C221.591858,172.944962 230.414093,172.927734 239.625229,172.898804 
	C248.372650,174.284317 255.306427,178.490036 261.873566,183.619934 
	C261.031891,185.544205 260.313416,187.186783 259.594940,188.829361 
	C259.324951,188.946655 259.132019,189.140594 258.713684,189.842529 
	C253.333160,199.185089 248.255081,208.096329 243.177002,217.007553 
z"/>
<path fill="#74204A" opacity="1.000000" stroke="none" 
	d="
M390.015594,102.997978 
	C398.485718,111.650581 396.019775,123.376480 384.039093,129.712555 
	C385.215942,130.320679 386.157379,130.819992 387.109833,131.297363 
	C399.753815,137.634583 401.246155,156.150848 389.088226,163.380798 
	C383.763519,166.547226 376.949219,168.186020 370.686798,168.590698 
	C358.420502,169.383316 346.066864,168.823578 333.012238,168.823578 
	C333.012238,147.751877 333.012238,126.840759 333.411652,105.398590 
	C335.383850,96.998947 335.383972,97.027641 344.506317,96.991173 
	C355.078369,96.948891 365.650208,96.849594 376.222137,96.775047 
	C376.222137,96.775047 376.145355,96.683662 376.178589,97.072876 
	C378.826538,97.960762 381.441284,98.459427 384.056000,98.958099 
	C384.056000,98.958099 384.019592,99.007339 384.069519,99.330414 
	C386.084839,100.768318 388.050232,101.883148 390.015594,102.997978 
M364.384644,138.803055 
	C360.453491,138.803055 356.522369,138.803055 352.537720,138.803055 
	C352.537720,144.172501 352.537720,148.872437 352.537720,154.158905 
	C358.910522,153.815704 364.884399,153.789078 370.774597,153.073593 
	C374.740906,152.591843 377.472595,150.133347 377.199585,145.627167 
	C376.922729,141.057114 373.659119,139.600739 369.818695,138.968750 
	C368.355408,138.727951 366.833313,138.844299 364.384644,138.803055 
M356.643341,110.845039 
	C355.226410,110.957253 353.809509,111.069473 352.420990,111.179436 
	C352.420990,115.858009 352.420990,120.103935 352.420990,125.103737 
	C358.284058,124.795212 363.871460,124.698402 369.412781,124.142609 
	C373.329620,123.749748 375.135162,121.037758 374.981018,117.181923 
	C374.820129,113.156212 372.272278,111.220726 368.564728,110.951141 
	C364.929993,110.686852 361.263275,110.862129 356.643341,110.845039 
z"/>
<path fill="#75224B" opacity="1.000000" stroke="none" 
	d="
M723.005981,187.143768 
	C726.818787,187.143768 730.631531,187.143768 735.161194,187.143768 
	C735.161194,193.456985 735.152527,199.702255 735.165100,205.947495 
	C735.170837,208.779007 735.032532,211.626968 735.282288,214.438782 
	C736.034058,222.899261 740.838440,227.310608 748.874512,227.132965 
	C756.626343,226.961609 762.231873,221.460510 762.396851,213.452820 
	C762.574707,204.822327 762.437134,196.185333 762.437134,187.272903 
	C768.965149,187.272903 775.049194,187.272903 781.870667,187.272903 
	C781.870667,189.031052 781.870789,190.795105 781.870605,192.559158 
	C781.868652,208.054474 781.882263,223.549820 781.860474,239.045120 
	C781.836182,256.356598 773.585754,267.092346 756.552795,270.362457 
	C742.179260,273.122009 728.890198,269.692719 716.776978,260.618530 
	C719.437195,256.161835 721.952820,251.947388 724.062134,248.413528 
	C730.352173,250.529999 735.982178,253.048279 741.880859,254.282410 
	C755.119324,257.052185 763.349731,249.253906 762.088440,234.846573 
	C756.053345,241.084824 749.167603,244.496994 740.766357,244.015594 
	C732.484619,243.541061 725.687073,240.304642 720.904114,232.550751 
	C720.901978,230.609161 721.326721,229.203049 720.827454,228.318817 
	C716.730103,221.062775 718.348999,213.148651 718.037537,205.475342 
	C717.882141,201.645752 716.810913,197.106674 724.393860,196.817062 
	C720.246826,194.651627 715.270813,194.484375 717.545959,190.211029 
	C719.919373,188.877701 721.462708,188.010727 723.005981,187.143768 
M725.140503,215.635910 
	C725.515259,215.861511 725.890015,216.087112 726.264832,216.312714 
	C726.529907,211.432251 726.794983,206.551804 727.060059,201.671341 
	C726.382080,201.680313 725.704041,201.689301 725.026062,201.698288 
	C725.026062,206.068726 725.026062,210.439163 725.140503,215.635910 
z"/>
<path fill="#75214B" opacity="1.000000" stroke="none" 
	d="
M407.138062,118.018570 
	C409.603363,105.487015 417.629181,98.299812 429.656677,95.631157 
	C440.351196,93.258270 450.908539,94.021957 460.369904,100.239693 
	C467.939056,105.213928 472.302917,112.678520 472.630371,121.502495 
	C473.209106,137.095764 472.792480,152.725952 472.792480,168.596680 
	C466.535767,168.596680 460.471924,168.596680 453.883911,168.596680 
	C453.883911,163.030579 453.883911,157.614212 453.883911,151.874115 
	C444.316559,151.874115 435.267029,151.874115 425.677551,151.874115 
	C425.677551,157.394547 425.677551,162.806824 425.677551,168.818451 
	C419.739685,168.818451 414.318237,168.818451 408.441254,168.284058 
	C407.990051,152.756470 408.020081,137.763184 407.960999,122.770241 
	C407.954742,121.185295 407.424957,119.602409 407.138062,118.018570 
M453.851959,127.765579 
	C453.562561,125.460175 453.476227,123.106651 452.943634,120.858871 
	C451.623108,115.286018 446.803314,111.356087 441.171173,111.002892 
	C433.860321,110.544441 428.016693,113.443657 426.592041,119.619514 
	C425.327820,125.099976 425.621185,130.939743 425.236816,136.479797 
	C435.441315,136.479797 444.514648,136.479797 453.850586,136.479797 
	C453.850586,133.642792 453.850586,131.162323 453.851959,127.765579 
z"/>
<path fill="#75214A" opacity="1.000000" stroke="none" 
	d="
M332.226135,212.033524 
	C334.875305,196.160858 345.422638,186.637451 361.437531,186.071609 
	C366.046082,185.908783 370.814392,186.067169 375.288330,187.067322 
	C389.687134,190.286270 398.389832,201.222855 398.560791,216.016235 
	C398.712708,229.164017 398.478516,242.316071 398.598816,255.464554 
	C398.629547,258.823212 397.329590,260.090363 394.107513,260.028168 
	C389.310852,259.935547 384.511108,260.004150 379.119141,260.004150 
	C379.119141,254.395218 379.119141,249.126678 378.961975,242.998825 
	C376.987610,241.757858 375.187042,241.195633 373.350281,241.026688 
	C366.505646,240.397095 359.451477,242.431091 352.478424,239.133560 
	C352.305298,240.410187 352.158447,241.492920 352.011627,242.575653 
	C351.692810,242.855270 351.373962,243.134903 350.693420,243.986374 
	C350.141846,247.599747 350.044708,250.651062 349.724030,253.678726 
	C349.558014,255.246277 349.466339,257.517853 348.495361,258.130096 
	C347.245819,258.917969 345.133148,258.503143 343.420502,258.328979 
	C342.368988,258.222046 341.361481,257.245636 340.349426,257.270844 
	C337.577454,257.339935 334.813568,257.732391 332.046478,257.996857 
	C331.986481,256.601532 331.926453,255.206238 332.314484,253.337830 
	C332.528931,250.583817 332.295349,248.302887 332.061768,246.021973 
	C331.995850,236.980331 331.929901,227.938705 332.225159,218.194351 
	C332.466309,215.672272 332.346222,213.852890 332.226135,212.033524 
M352.657227,228.690292 
	C358.747986,228.797806 364.840088,229.025391 370.928894,228.957718 
	C373.618561,228.927826 376.301575,228.299179 379.094421,227.020584 
	C379.100281,223.202957 379.242706,219.379684 379.084930,215.568832 
	C378.702454,206.331757 370.949005,200.478073 361.938080,202.501633 
	C352.458862,204.630402 347.720520,216.895950 352.657227,228.690292 
z"/>
<path fill="#75214A" opacity="1.000000" stroke="none" 
	d="
M429.902954,259.231567 
	C429.779388,259.067352 429.655792,258.903107 429.049469,258.957153 
	C428.311066,259.343170 428.126740,259.569122 428.013733,259.853271 
	C422.566071,259.853271 417.118378,259.853271 411.406128,259.853271 
	C411.406128,235.586563 411.406128,211.567993 411.406128,187.796127 
	C425.401764,187.796127 439.335022,187.092911 453.157776,188.026321 
	C463.568573,188.729340 471.302612,194.870010 473.614197,205.536423 
	C476.044373,216.750153 474.158722,227.056152 464.270660,234.535599 
	C463.615265,235.031372 462.954498,235.520065 461.856140,236.340988 
	C464.555603,240.652405 467.243652,244.945618 469.982147,249.959778 
	C470.352875,251.783600 470.848694,252.870895 470.948334,253.993347 
	C471.068604,255.348495 470.852936,256.733459 470.782684,258.105530 
	C469.476593,258.028961 468.170471,257.891876 466.864410,257.892731 
	C465.536743,257.893585 464.050201,257.671844 462.911896,258.176300 
	C459.747223,259.578766 457.269043,259.379883 455.126007,256.357727 
	C454.185791,255.031860 452.677551,254.108765 451.427246,253.002777 
	C451.312347,252.850662 451.197418,252.698563 451.043427,251.893250 
	C450.169800,249.944427 449.335236,248.648804 448.500671,247.353180 
	C448.500671,247.353180 448.605682,247.249100 448.639709,247.036636 
	C448.415009,246.566833 448.156311,246.309494 447.897614,246.052155 
	C447.897614,246.052139 447.987671,246.030334 447.950897,245.728058 
	C447.519104,244.928162 447.124084,244.430557 446.729095,243.932953 
	C446.491425,243.613098 446.253723,243.293243 446.336487,242.556030 
	C446.269958,241.089355 446.052826,239.907837 445.398254,239.066788 
	C445.186249,238.794403 443.827484,239.414536 442.993256,239.626419 
	C441.905334,239.693573 440.817444,239.760742 439.051392,239.538712 
	C437.209534,238.782608 435.931091,238.489822 434.904968,237.813980 
	C432.483368,236.219070 432.119385,237.641159 431.988007,239.601364 
	C431.765442,239.688629 431.542908,239.775879 430.700531,240.176971 
	C429.053833,245.020859 426.742126,249.561310 430.190735,254.055054 
	C430.159637,255.484634 430.128540,256.914215 429.983276,258.754578 
	C429.869110,259.165375 429.902954,259.231567 429.902954,259.231567 
M452.391510,221.991684 
	C458.892883,215.093552 456.936066,204.599045 448.441254,203.138931 
	C442.717010,202.155029 436.686768,202.951462 430.847107,202.951462 
	C430.847107,210.249390 430.847107,217.289795 430.847107,225.499359 
	C438.206787,224.445114 445.002686,223.471634 452.391510,221.991684 
z"/>
<path fill="#74204A" opacity="1.000000" stroke="none" 
	d="
M641.072083,203.017303 
	C643.948486,195.251083 649.931458,190.707581 657.361755,188.046753 
	C666.055542,184.933502 675.024719,184.921356 683.815796,187.595306 
	C696.745361,191.528015 704.351257,201.536362 704.746765,215.951569 
	C705.143188,230.405106 704.744324,244.880463 704.061401,259.312012 
	C700.927368,258.194183 699.104004,256.687927 695.622681,258.572113 
	C690.258057,261.475647 686.988708,258.597504 686.947998,252.398392 
	C686.938477,250.942520 686.259644,249.491043 685.888672,248.037567 
	C685.610229,246.444870 685.331909,244.852173 685.061646,243.305878 
	C675.786438,243.305878 666.605957,243.305878 656.899841,243.889313 
	C656.149536,246.173050 655.791565,247.868530 655.729736,249.574722 
	C655.622986,252.522736 655.700195,255.477402 655.700195,258.894531 
	C653.040283,257.967346 651.827515,257.164124 650.648499,257.210907 
	C648.000488,257.315918 645.324280,258.278076 642.750549,258.011566 
	C641.494019,257.881439 639.447693,255.782150 639.447632,254.574081 
	C639.446899,240.143265 639.783020,225.712677 639.959167,211.281143 
	C639.972412,210.199066 639.437195,209.110291 639.156982,208.024628 
	C639.265991,207.465805 639.375061,206.906982 639.981750,205.985703 
	C640.584900,205.007477 640.690369,204.391724 640.795898,203.775955 
	C640.795898,203.775955 640.861023,203.904099 640.996460,203.861252 
	C641.242371,203.752411 641.352844,203.686417 641.463318,203.620407 
	C641.332947,203.419357 641.202515,203.218323 641.072083,203.017303 
M684.727966,227.860382 
	C684.825989,223.006256 685.440491,218.093521 684.897888,213.312088 
	C684.134277,206.583115 678.666809,202.339798 671.758850,202.155289 
	C664.732666,201.967636 659.202148,205.702560 657.979431,212.472137 
	C657.077454,217.466003 657.359253,222.673660 657.054443,228.520630 
	C657.545349,229.141174 658.094666,230.332565 658.517578,230.289261 
	C661.190308,230.015533 663.819031,229.252670 666.492188,229.055344 
	C672.313660,228.625626 678.153015,228.437973 684.727966,227.860382 
z"/>
<path fill="#75204A" opacity="1.000000" stroke="none" 
	d="
M504.710815,104.757835 
	C510.620880,99.655663 516.644348,95.211678 525.017517,94.530113 
	C538.059265,93.468536 550.662842,101.568863 551.525879,114.632164 
	C552.705017,132.480331 551.820251,150.464859 551.820251,168.619690 
	C545.555969,168.619690 539.486389,168.619690 532.841187,168.619690 
	C532.841187,159.797852 532.840820,151.190567 532.841248,142.583267 
	C532.841492,137.255081 532.926636,131.925293 532.825073,126.599068 
	C532.655273,117.696136 527.979126,112.361755 520.332825,112.169540 
	C512.032959,111.960884 505.228821,118.020233 504.997009,126.591331 
	C504.668549,138.737152 504.865631,150.897202 504.839233,163.051163 
	C504.835663,164.709183 504.838745,166.367218 504.838745,168.730911 
	C498.590485,168.730911 492.515686,168.730911 486.514709,168.073807 
	C486.724457,165.612717 486.975616,163.808929 486.978638,162.004715 
	C487.008698,143.904205 486.996948,125.803642 486.999146,107.703087 
	C487.000458,97.048195 487.541016,96.432755 498.270203,97.099998 
	C500.414978,97.233383 502.484863,98.571098 504.589264,99.353500 
	C504.671295,100.351341 504.753357,101.349174 504.275177,102.684593 
	C502.321472,103.164536 500.927979,103.306892 499.534485,103.449249 
	C499.584900,103.885445 499.635315,104.321640 499.685730,104.757835 
	C501.360748,104.757835 503.035797,104.757835 504.710815,104.757835 
z"/>
<path fill="#741E48" opacity="1.000000" stroke="none" 
	d="
M834.008606,242.693237 
	C829.641724,242.737518 825.274902,242.781784 820.239258,242.473480 
	C817.195923,240.902771 814.809937,239.581375 812.932922,242.855957 
	C812.932922,242.855957 812.928955,242.951675 812.503296,243.050522 
	C811.736206,246.822495 811.284119,250.489670 811.085999,254.170517 
	C810.904297,257.546082 809.629700,259.455444 805.936829,259.076447 
	C801.730896,258.644714 797.515198,258.308807 793.303711,257.931274 
	C793.259888,244.613373 793.216064,231.295471 793.591492,217.397522 
	C795.037415,211.624603 796.064087,206.431717 797.090759,201.238831 
	C804.368164,188.895004 818.669983,183.285980 834.592224,186.480774 
	C843.775269,188.323364 851.357422,192.487366 856.073914,201.652710 
	C856.483643,202.858627 856.856934,203.382782 857.230225,203.906921 
	C857.230225,203.906906 857.118958,203.911041 857.087524,204.307068 
	C857.370850,207.309860 857.940125,209.914886 857.957825,212.523666 
	C858.049988,226.108719 858.044006,239.694946 857.981079,253.280334 
	C857.956726,258.541321 855.186768,260.365448 850.200500,258.843781 
	C848.022949,258.179260 845.722046,257.918854 842.487427,257.279175 
	C842.178040,253.960754 841.760986,249.487427 841.286804,244.748413 
	C841.044128,243.989548 840.858582,243.496368 840.673035,243.003174 
	C840.673035,243.003189 840.343445,242.966064 840.108765,242.542435 
	C837.918945,242.310287 835.963806,242.501755 834.008606,242.693237 
M814.517761,207.149811 
	C813.992432,208.766098 813.467102,210.382385 812.995056,212.504150 
	C812.932129,212.661453 812.869141,212.818771 812.083557,213.152786 
	C808.472656,217.557770 809.737549,222.524948 810.869446,227.250000 
	C811.192810,228.599930 814.234802,230.702850 814.762146,230.381271 
	C819.733521,227.349243 824.152527,232.656738 828.904541,231.021774 
	C829.968872,230.655594 831.166931,230.626862 832.310486,230.554626 
	C834.016418,230.446899 835.871338,229.992554 837.407349,230.484131 
	C840.271729,231.400803 841.133850,230.493149 840.895508,226.874985 
	C840.878357,224.552551 840.849548,222.230118 840.845947,219.907669 
	C840.823914,205.751007 834.019592,200.172867 819.723694,203.023148 
	C814.663513,200.575180 815.188782,204.181473 815.079590,207.067261 
	C815.079590,207.067261 815.225220,207.169754 814.517761,207.149811 
z"/>
<path fill="#752049" opacity="1.000000" stroke="none" 
	d="
M630.094788,99.116379 
	C622.348022,107.975601 614.601257,116.834839 606.637207,125.942619 
	C611.396362,133.068069 616.089233,140.095947 620.783997,147.122574 
	C625.461426,154.123322 630.140686,161.122849 635.303650,168.847900 
	C627.634216,168.847900 620.872437,169.020386 614.133240,168.707245 
	C612.729004,168.641983 611.057739,167.031998 610.106384,165.705734 
	C604.318726,157.637100 598.703674,149.444611 592.314087,141.188034 
	C590.753174,142.091309 589.909180,143.100021 589.065247,144.108734 
	C589.065247,144.108734 589.026855,144.025284 588.720398,144.071976 
	C587.973511,144.823029 587.533081,145.527390 587.092651,146.231750 
	C587.092651,146.231750 587.060791,146.646332 586.602173,146.823944 
	C584.918823,148.253922 582.841980,149.378235 582.630859,150.782913 
	C582.019592,154.851212 581.868774,159.048080 582.095032,163.163834 
	C582.271667,166.376282 581.372009,168.189255 578.133850,168.628204 
	C577.308777,168.690292 576.483765,168.752411 574.975342,168.524063 
	C572.759460,167.216385 571.227051,166.199173 570.148254,165.483093 
	C568.586975,166.273590 566.872314,167.141769 565.157593,168.009949 
	C565.063171,147.311172 564.968750,126.612389 565.323425,105.383575 
	C566.152466,104.365280 566.939209,103.783730 566.851807,103.402611 
	C565.304504,96.653671 569.528870,96.630493 574.168335,96.992226 
	C575.319946,97.082024 576.484436,97.008171 577.643005,97.006218 
	C581.071411,97.000420 582.999390,98.799362 582.935425,102.134148 
	C582.825012,107.889999 582.197571,113.640053 582.205505,119.391983 
	C582.208557,121.615265 583.351379,123.836975 583.974976,126.059395 
	C590.308777,119.097511 596.642578,112.135635 603.647217,105.028732 
	C605.186096,103.555229 606.054138,102.226761 606.922180,100.898285 
	C606.922180,100.898277 606.997742,100.980209 607.360229,100.974655 
	C608.530701,100.856575 609.965515,100.918549 610.052673,100.605331 
	C611.373596,95.860802 615.175049,97.083984 618.409973,97.014824 
	C621.044861,96.958481 623.710083,96.775932 626.306274,97.097954 
	C627.632141,97.262413 628.835815,98.412048 630.094788,99.116379 
z"/>
<path fill="#4E0F31" opacity="1.000000" stroke="none" 
	d="
M166.866547,187.241150 
	C162.600784,194.776230 158.359253,202.325150 154.063980,209.843369 
	C146.294022,223.443405 138.475952,237.015976 130.712326,250.619629 
	C128.114685,255.171280 125.621872,259.782745 123.070602,264.732239 
	C112.606209,269.247864 101.656860,270.483948 90.200439,270.391846 
	C95.015594,262.135773 100.272835,254.191452 105.252441,246.076767 
	C109.471573,239.201263 113.403404,232.147995 117.401375,225.138596 
	C122.487709,216.221024 127.512543,207.268372 133.237198,198.117828 
	C144.895859,194.350250 155.881195,190.795700 166.866547,187.241150 
z"/>
<path fill="#751F49" opacity="1.000000" stroke="none" 
	d="
M505.166473,249.028870 
	C505.166473,233.912292 505.166473,218.795715 505.166473,202.621185 
	C498.555359,204.680313 492.657318,206.517349 486.222778,208.521484 
	C484.622803,204.054276 482.879822,199.187775 481.158783,194.382568 
	C498.992950,183.017166 531.566284,183.114059 548.166809,194.607956 
	C546.534363,199.158783 544.871033,203.795532 543.204712,208.440552 
	C537.734741,206.843048 532.442444,205.233093 527.101929,203.803070 
	C526.243164,203.573135 525.169434,204.146011 523.694946,204.755676 
	C522.827576,206.655807 522.115967,208.157623 522.157227,209.638474 
	C522.284119,214.189072 522.914124,218.729538 522.958496,223.277740 
	C523.056580,233.327682 523.107300,243.386703 522.752625,253.427002 
	C522.651184,256.299133 521.447510,259.359009 517.255676,259.025269 
	C514.375793,258.795990 511.410126,259.238190 508.602203,258.725861 
	C507.561615,258.536011 506.503021,256.588562 506.091248,255.246674 
	C505.483459,253.265991 505.446533,251.110123 505.166473,249.028870 
M512.995117,207.671295 
	C512.995117,205.661957 512.995117,203.652603 512.995117,201.643265 
	C512.403748,201.659256 511.812347,201.675247 511.220947,201.691238 
	C511.220947,218.022720 511.220947,234.354202 511.220947,250.735535 
	C511.504822,250.662918 512.372559,250.551514 512.374817,250.424652 
	C512.623779,236.494400 512.807922,222.563019 512.995117,207.671295 
z"/>
<path fill="#C68755" opacity="1.000000" stroke="none" 
	d="
M233.855133,73.685379 
	C230.170700,79.631470 226.241531,85.086945 222.815308,90.841827 
	C214.956146,104.042473 207.336349,117.385727 199.634430,130.679825 
	C198.319397,132.949661 197.079132,135.262848 195.351730,137.445679 
	C190.564148,129.585815 186.229141,121.836250 181.894135,114.086700 
	C184.832581,108.384178 187.589218,102.578720 190.747696,97.000793 
	C197.125336,85.737709 203.834564,74.661781 210.166504,63.373745 
	C212.418060,59.359829 213.971802,54.954494 216.339355,50.355732 
	C217.683350,49.636703 218.532120,49.289780 219.380875,48.942856 
	C224.200180,57.072151 229.019485,65.201439 233.855133,73.685379 
z"/>
<path fill="#751D48" opacity="1.000000" stroke="none" 
	d="
M599.002441,217.050888 
	C600.988342,216.990326 602.974243,216.929764 605.796143,216.841309 
	C607.081848,212.247940 607.532349,207.682571 607.980957,203.117004 
	C608.229675,200.586380 608.475098,198.055420 608.839966,194.315079 
	C608.585571,193.780182 607.702576,191.923294 606.960693,190.363159 
	C608.635498,189.038361 609.813049,188.106918 610.990540,187.175476 
	C615.585510,187.175476 620.180420,187.175476 625.123596,187.175476 
	C625.123596,207.680420 625.123596,227.878128 624.689331,248.600952 
	C623.863953,252.254791 623.472900,255.383514 623.101013,258.359344 
	C617.612915,257.861725 613.009888,257.444336 607.537842,256.948181 
	C608.054016,247.771591 608.525757,239.384689 609.135559,230.945068 
	C609.183167,230.929153 609.092834,230.965988 608.754517,231.006500 
	C608.506592,231.010193 608.010681,231.013550 608.005371,231.006744 
	C608.000000,230.999924 607.986023,230.989273 607.934448,230.654877 
	C600.639954,229.881546 593.393860,229.487747 586.155823,228.978104 
	C583.758484,228.809311 581.382080,228.342239 579.007324,227.616455 
	C580.773926,226.148224 582.414978,224.500671 584.308777,224.124176 
	C587.992554,223.391876 591.815552,223.337677 595.585510,223.066940 
	C599.782471,222.765579 600.417358,220.506348 599.002441,217.050888 
z"/>
<path fill="#741D48" opacity="1.000000" stroke="none" 
	d="
M598.608459,216.956879 
	C600.417358,220.506348 599.782471,222.765579 595.585510,223.066940 
	C591.815552,223.337677 587.992554,223.391876 584.308777,224.124176 
	C582.414978,224.500671 580.773926,226.148224 578.755005,227.729431 
	C578.659607,229.439163 578.827881,230.640823 578.996155,231.842499 
	C578.332458,233.028442 577.166504,234.185410 577.096191,235.405548 
	C576.853088,239.622650 576.991760,243.861771 576.656921,248.851669 
	C575.919373,252.581894 575.509949,255.552948 575.113953,258.426147 
	C572.894531,257.900146 570.737122,256.865479 570.285156,257.367157 
	C567.461975,260.500916 564.715759,257.775848 562.247192,257.283691 
	C558.027283,256.442383 559.721863,252.882050 559.748657,250.001892 
	C559.913513,232.312149 559.972900,214.620544 559.882263,196.930496 
	C559.872131,194.960052 558.694702,192.995575 558.058655,191.028336 
	C557.984802,190.577698 557.910950,190.127060 558.317688,189.344986 
	C560.197144,188.399078 561.596008,187.784607 562.994873,187.170135 
	C567.452332,187.170151 571.909790,187.170151 576.986267,187.170151 
	C576.986267,195.523285 576.923645,203.766251 577.040039,212.006668 
	C577.062805,213.622452 577.778320,215.228424 578.634827,217.319763 
	C582.865051,222.893326 592.428833,222.444061 594.997681,217.053558 
	C596.069946,216.990005 597.142212,216.926437 598.608459,216.956879 
z"/>
<path fill="#632545" opacity="1.000000" stroke="none" 
	d="
M579.460876,231.910797 
	C578.827881,230.640823 578.659607,229.439163 578.743713,228.124512 
	C581.382080,228.342239 583.758484,228.809311 586.155823,228.978104 
	C593.393860,229.487747 600.639954,229.881546 607.797058,230.712509 
	C607.811035,231.074203 607.910828,231.043884 608.010681,231.013550 
	C608.010681,231.013550 608.506592,231.010193 608.753296,231.005096 
	C609.000000,231.000000 608.997559,230.997787 608.997559,230.997787 
	C608.525757,239.384689 608.054016,247.771591 607.537842,256.948181 
	C613.009888,257.444336 617.612915,257.861725 623.101013,258.359344 
	C623.472900,255.383514 623.863953,252.254791 624.594971,249.061157 
	C624.934875,252.469116 624.934875,255.941971 624.934875,259.716187 
	C618.822693,259.716187 612.736389,259.716187 606.178711,259.716187 
	C606.178711,250.697601 606.178711,241.625320 606.178711,231.979095 
	C597.123230,231.979095 588.524414,231.979095 579.460876,231.910797 
z"/>
<path fill="#652543" opacity="1.000000" stroke="none" 
	d="
M504.583282,99.328445 
	C502.484863,98.571098 500.414978,97.233383 498.270203,97.099998 
	C487.541016,96.432755 487.000458,97.048195 486.999146,107.703087 
	C486.996948,125.803642 487.008698,143.904205 486.978638,162.004715 
	C486.975616,163.808929 486.724457,165.612717 486.288757,167.708435 
	C485.819305,166.210693 485.504333,164.421402 485.501892,162.631683 
	C485.473907,142.205505 485.493622,121.779274 485.500458,101.353058 
	C485.500977,99.717041 485.500549,98.081032 485.500549,95.911705 
	C491.782898,95.911705 497.693939,95.886253 503.603424,95.969299 
	C503.994995,95.974808 504.374969,96.806107 504.554993,97.852997 
	C504.231720,98.779564 504.312439,99.046669 504.591797,99.253983 
	C504.591797,99.253983 504.577301,99.303398 504.583282,99.328445 
z"/>
<path fill="#6A2D4A" opacity="1.000000" stroke="none" 
	d="
M219.236389,48.546700 
	C218.532120,49.289780 217.683350,49.636703 216.491440,50.023972 
	C213.370682,49.708202 210.594833,49.060608 207.815201,49.043961 
	C191.510071,48.946289 175.201294,48.825924 158.899811,49.088593 
	C153.225769,49.180023 147.568954,50.341209 141.502350,51.022453 
	C141.768799,49.722958 142.437180,48.414833 142.924377,47.461311 
	C155.735199,47.461311 168.144165,47.466618 180.553146,47.459782 
	C192.341705,47.453285 204.130325,47.415394 215.918716,47.452362 
	C216.977173,47.455685 218.034195,47.907185 219.236389,48.546700 
z"/>
<path fill="#632845" opacity="1.000000" stroke="none" 
	d="
M841.343933,245.014084 
	C841.760986,249.487427 842.178040,253.960754 842.487427,257.279175 
	C845.722046,257.918854 848.022949,258.179260 850.200500,258.843781 
	C855.186768,260.365448 857.956726,258.541321 857.981079,253.280334 
	C858.044006,239.694946 858.049988,226.108719 857.957825,212.523666 
	C857.940125,209.914886 857.370850,207.309860 857.108276,204.255432 
	C858.046570,206.784546 859.649170,209.749512 859.698547,212.740112 
	C859.956055,228.336670 859.818604,243.939774 859.818604,260.013550 
	C854.032898,260.013550 848.422729,260.083618 842.819397,259.920013 
	C842.159546,259.900757 841.537170,258.597900 841.020264,256.990662 
	C841.210022,252.398834 841.276978,248.706467 841.343933,245.014084 
z"/>
<path fill="#612845" opacity="1.000000" stroke="none" 
	d="
M639.026978,208.422913 
	C639.437195,209.110291 639.972412,210.199066 639.959167,211.281143 
	C639.783020,225.712677 639.446899,240.143265 639.447632,254.574081 
	C639.447693,255.782150 641.494019,257.881439 642.750549,258.011566 
	C645.324280,258.278076 648.000488,257.315918 650.648499,257.210907 
	C651.827515,257.164124 653.040283,257.967346 655.700195,258.894531 
	C655.700195,255.477402 655.622986,252.522736 655.729736,249.574722 
	C655.791565,247.868530 656.149536,246.173050 656.656006,244.253983 
	C656.937866,249.154785 656.937866,254.274353 656.937866,259.706848 
	C650.842224,259.706848 644.772278,259.706848 637.989990,259.706848 
	C637.989990,257.735474 637.989197,255.653275 637.990051,253.571075 
	C637.995239,241.282120 637.950256,228.992752 638.046509,216.704514 
	C638.067078,214.074692 638.600037,211.448868 639.026978,208.422913 
z"/>
<path fill="#632644" opacity="1.000000" stroke="none" 
	d="
M557.975708,191.488052 
	C558.694702,192.995575 559.872131,194.960052 559.882263,196.930496 
	C559.972900,214.620544 559.913513,232.312149 559.748657,250.001892 
	C559.721863,252.882050 558.027283,256.442383 562.247192,257.283691 
	C564.715759,257.775848 567.461975,260.500916 570.285156,257.367157 
	C570.737122,256.865479 572.894531,257.900146 575.113953,258.426147 
	C575.509949,255.552948 575.919373,252.581894 576.584045,249.315643 
	C576.839294,252.486145 576.839294,255.951843 576.839294,259.713409 
	C570.591919,259.713409 564.519287,259.713409 557.892700,259.713409 
	C557.892700,237.107117 557.892700,214.527435 557.975708,191.488052 
z"/>
<path fill="#6A2848" opacity="1.000000" stroke="none" 
	d="
M722.559387,187.072830 
	C721.462708,188.010727 719.919373,188.877701 717.545959,190.211029 
	C715.270813,194.484375 720.246826,194.651627 724.393860,196.817062 
	C716.810913,197.106674 717.882141,201.645752 718.037537,205.475342 
	C718.348999,213.148651 716.730103,221.062775 720.827454,228.318817 
	C721.326721,229.203049 720.901978,230.609161 720.850952,232.234192 
	C719.253418,228.398895 716.643066,224.167343 716.378723,219.793991 
	C715.731506,209.084869 716.167358,198.310272 716.167358,187.001907 
	C718.267700,187.001907 720.190247,187.001907 722.559387,187.072830 
z"/>
<path fill="#632644" opacity="1.000000" stroke="none" 
	d="
M505.095276,249.484055 
	C505.446533,251.110123 505.483459,253.265991 506.091248,255.246674 
	C506.503021,256.588562 507.561615,258.536011 508.602203,258.725861 
	C511.410126,259.238190 514.375793,258.795990 517.255676,259.025269 
	C521.447510,259.359009 522.651184,256.299133 522.752625,253.427002 
	C523.107300,243.386703 523.056580,233.327682 522.958496,223.277740 
	C522.914124,218.729538 522.284119,214.189072 522.157227,209.638474 
	C522.115967,208.157623 522.827576,206.655807 523.564209,205.087692 
	C523.933655,223.144302 523.933655,241.276794 523.933655,259.711823 
	C517.861511,259.711823 511.778809,259.711823 505.024078,259.711823 
	C505.024078,256.461609 505.024078,253.200424 505.095276,249.484055 
z"/>
<path fill="#652543" opacity="1.000000" stroke="none" 
	d="
M407.004608,118.423477 
	C407.424957,119.602409 407.954742,121.185295 407.960999,122.770241 
	C408.020081,137.763184 407.990051,152.756470 407.979584,168.194763 
	C407.393707,168.275421 406.304596,167.906952 406.307434,167.547089 
	C406.435211,151.307037 406.658813,135.067749 407.004608,118.423477 
z"/>
<path fill="#5C2943" opacity="1.000000" stroke="none" 
	d="
M583.982910,125.586884 
	C583.351379,123.836975 582.208557,121.615265 582.205505,119.391983 
	C582.197571,113.640053 582.825012,107.889999 582.935425,102.134148 
	C582.999390,98.799362 581.071411,97.000420 577.643005,97.006218 
	C576.484436,97.008171 575.319946,97.082024 574.168335,96.992226 
	C569.528870,96.630493 565.304504,96.653671 566.851807,103.402611 
	C566.939209,103.783730 566.152466,104.365280 565.417847,104.922623 
	C565.063232,102.173920 565.063232,99.356155 565.063232,96.168533 
	C571.061096,96.168533 577.141541,96.168533 583.990845,96.168533 
	C583.990845,105.659416 583.990845,115.386887 583.982910,125.586884 
z"/>
<path fill="#652D4A" opacity="1.000000" stroke="none" 
	d="
M451.544006,253.328064 
	C452.677551,254.108765 454.185791,255.031860 455.126007,256.357727 
	C457.269043,259.379883 459.747223,259.578766 462.911896,258.176300 
	C464.050201,257.671844 465.536743,257.893585 466.864410,257.892731 
	C468.170471,257.891876 469.476593,258.028961 470.782684,258.105530 
	C470.852936,256.733459 471.068604,255.348495 470.948334,253.993347 
	C470.848694,252.870895 470.352875,251.783600 470.046875,250.300278 
	C472.151367,252.993210 474.241608,256.066620 476.912323,259.993530 
	C469.511108,259.993530 463.093384,260.484589 456.834808,259.702423 
	C454.888550,259.459167 453.373352,255.766754 451.544006,253.328064 
z"/>
<path fill="#632644" opacity="1.000000" stroke="none" 
	d="
M610.554016,187.100525 
	C609.813049,188.106918 608.635498,189.038361 606.960693,190.363159 
	C607.702576,191.923294 608.585571,193.780182 608.839966,194.315079 
	C608.475098,198.055420 608.229675,200.586380 607.980957,203.117004 
	C607.532349,207.682571 607.081848,212.247940 606.221497,216.856766 
	C605.810913,207.118088 605.810913,197.336060 605.810913,187.025543 
	C607.597107,187.025543 608.857300,187.025543 610.554016,187.100525 
z"/>
<path fill="#7D4762" opacity="1.000000" stroke="none" 
	d="
M793.225464,258.358032 
	C797.515198,258.308807 801.730896,258.644714 805.936829,259.076447 
	C809.629700,259.455444 810.904297,257.546082 811.085999,254.170517 
	C811.284119,250.489670 811.736206,246.822495 812.457581,243.036133 
	C812.837585,248.496124 812.837585,254.069366 812.837585,260.005249 
	C806.224243,260.005249 800.314636,260.030304 794.406372,259.952667 
	C793.981689,259.947113 793.566772,259.191620 793.225464,258.358032 
z"/>
<path fill="#632545" opacity="1.000000" stroke="none" 
	d="
M352.382660,242.676498 
	C352.158447,241.492920 352.305298,240.410187 352.478424,239.133560 
	C359.451477,242.431091 366.505646,240.397095 373.350281,241.026688 
	C375.187042,241.195633 376.987610,241.757858 378.913757,242.527557 
	C376.628784,242.881180 374.234802,242.846786 371.309021,242.602432 
	C370.467651,242.238083 370.218719,242.317032 370.030365,242.629303 
	C365.648651,242.688538 361.266968,242.747787 356.333252,242.598816 
	C355.472809,242.236526 355.226318,242.315903 355.041748,242.628723 
	C354.279053,242.678253 353.516388,242.727798 352.382660,242.676498 
z"/>
<path fill="#751D48" opacity="1.000000" stroke="none" 
	d="
M594.539185,216.959320 
	C592.428833,222.444061 582.865051,222.893326 579.048828,217.428467 
	C584.028503,216.992584 589.054626,216.928833 594.539185,216.959320 
z"/>
<path fill="#622C47" opacity="1.000000" stroke="none" 
	d="
M375.890076,96.497391 
	C365.650208,96.849594 355.078369,96.948891 344.506317,96.991173 
	C335.383972,97.027641 335.383850,96.998947 333.483093,104.934937 
	C333.155151,102.068649 333.155151,99.134972 333.155151,96.219727 
	C347.491974,96.219727 361.524994,96.219727 375.890076,96.497391 
z"/>
<path fill="#632845" opacity="1.000000" stroke="none" 
	d="
M331.981262,258.433594 
	C334.813568,257.732391 337.577454,257.339935 340.349426,257.270844 
	C341.361481,257.245636 342.368988,258.222046 343.420502,258.328979 
	C345.133148,258.503143 347.245819,258.917969 348.495361,258.130096 
	C349.466339,257.517853 349.558014,255.246277 349.724030,253.678726 
	C350.044708,250.651062 350.141846,247.599747 350.586243,244.292572 
	C350.840790,249.110138 350.840790,254.193375 350.840790,260.447449 
	C344.477661,259.917145 338.196869,259.393738 331.981262,258.433594 
z"/>
<path fill="#652D4A" opacity="1.000000" stroke="none" 
	d="
M578.554565,168.718964 
	C581.372009,168.189255 582.271667,166.376282 582.095032,163.163834 
	C581.868774,159.048080 582.019592,154.851212 582.630859,150.782913 
	C582.841980,149.378235 584.918823,148.253922 586.489990,146.998978 
	C583.094727,150.691986 584.076355,155.419388 584.028320,159.915192 
	C583.998596,162.700165 584.022827,165.485718 584.022827,168.809708 
	C582.123596,168.809708 580.549500,168.809708 578.554565,168.718964 
z"/>
<path fill="#5C2943" opacity="1.000000" stroke="none" 
	d="
M685.759521,248.472092 
	C686.259644,249.491043 686.938477,250.942520 686.947998,252.398392 
	C686.988708,258.597504 690.258057,261.475647 695.622681,258.572113 
	C699.104004,256.687927 700.927368,258.194183 703.691711,259.489868 
	C697.740112,259.701996 691.525513,259.701996 685.630371,259.701996 
	C685.630371,256.045898 685.630371,252.476273 685.759521,248.472092 
z"/>
<path fill="#60344B" opacity="1.000000" stroke="none" 
	d="
M630.395691,99.006180 
	C628.835815,98.412048 627.632141,97.262413 626.306274,97.097954 
	C623.710083,96.775932 621.044861,96.958481 618.409973,97.014824 
	C615.175049,97.083984 611.373596,95.860802 610.052673,100.605331 
	C609.965515,100.918549 608.530701,100.856575 607.311523,100.947563 
	C608.924622,96.652199 612.319336,95.432602 616.911743,95.753662 
	C622.106750,96.116844 627.346680,95.837410 633.264343,95.837410 
	C632.087524,97.239174 631.392029,98.067574 630.395691,99.006180 
z"/>
<path fill="#7D4762" opacity="1.000000" stroke="none" 
	d="
M796.849243,201.488129 
	C796.064087,206.431717 795.037415,211.624603 793.665405,216.938187 
	C794.415955,211.951736 795.511780,206.844574 796.849243,201.488129 
z"/>
<path fill="#652D4A" opacity="1.000000" stroke="none" 
	d="
M430.335358,253.675980 
	C426.742126,249.561310 429.053833,245.020859 430.347961,240.242310 
	C430.570129,244.428162 430.525055,248.862534 430.335358,253.675980 
z"/>
<path fill="#652D4A" opacity="1.000000" stroke="none" 
	d="
M565.339478,168.376083 
	C566.872314,167.141769 568.586975,166.273590 570.148254,165.483093 
	C571.227051,166.199173 572.759460,167.216385 574.569946,168.429962 
	C571.739014,168.664932 568.630188,168.703568 565.339478,168.376083 
z"/>
<path fill="#7D4762" opacity="1.000000" stroke="none" 
	d="
M841.286804,244.748413 
	C841.276978,248.706467 841.210022,252.398834 841.070312,256.547546 
	C840.899231,252.641983 840.800964,248.280106 840.687866,243.460693 
	C840.858582,243.496368 841.044128,243.989548 841.286804,244.748413 
z"/>
<path fill="#622C47" opacity="1.000000" stroke="none" 
	d="
M383.805237,98.686287 
	C381.441284,98.459427 378.826538,97.960762 376.231415,97.045113 
	C378.685516,97.223579 381.119995,97.819031 383.805237,98.686287 
z"/>
<path fill="#652D4A" opacity="1.000000" stroke="none" 
	d="
M432.412689,239.705444 
	C432.119385,237.641159 432.483368,236.219070 434.904968,237.813980 
	C435.931091,238.489822 437.209534,238.782608 438.650299,239.448181 
	C436.897339,239.701080 434.867340,239.755295 432.412689,239.705444 
z"/>
<path fill="#7D4762" opacity="1.000000" stroke="none" 
	d="
M813.375854,242.875153 
	C814.809937,239.581375 817.195923,240.902771 819.777893,242.407242 
	C817.929749,242.760513 815.874268,242.827438 813.375854,242.875153 
z"/>
<path fill="#652D4A" opacity="1.000000" stroke="none" 
	d="
M443.273010,239.743332 
	C443.827484,239.414536 445.186249,238.794403 445.398254,239.066788 
	C446.052826,239.907837 446.269958,241.089355 446.308838,242.247742 
	C445.158051,241.524628 444.355408,240.692429 443.273010,239.743332 
z"/>
<path fill="#632845" opacity="1.000000" stroke="none" 
	d="
M331.969727,246.450027 
	C332.295349,248.302887 332.528931,250.583817 332.412537,252.928741 
	C332.000946,250.954529 331.939301,248.916306 331.969727,246.450027 
z"/>
<path fill="#622C47" opacity="1.000000" stroke="none" 
	d="
M389.882965,102.690521 
	C388.050232,101.883148 386.084839,100.768318 384.076904,99.301170 
	C385.939667,100.093590 387.845001,101.238335 389.882965,102.690521 
z"/>
<path fill="#7D4762" opacity="1.000000" stroke="none" 
	d="
M834.431274,242.799805 
	C835.963806,242.501755 837.918945,242.310287 839.976013,242.443024 
	C838.336548,242.813629 836.595276,242.860016 834.431274,242.799805 
z"/>
<path fill="#652543" opacity="1.000000" stroke="none" 
	d="
M504.751953,104.475639 
	C503.035797,104.757835 501.360748,104.757835 499.685730,104.757835 
	C499.635315,104.321640 499.584900,103.885445 499.534485,103.449249 
	C500.927979,103.306892 502.321472,103.164536 504.165039,103.046265 
	C504.674438,103.444717 504.733765,103.819077 504.751953,104.475639 
z"/>
<path fill="#632644" opacity="1.000000" stroke="none" 
	d="
M562.584839,187.102341 
	C561.596008,187.784607 560.197144,188.399078 558.412842,189.013336 
	C559.409790,188.353592 560.792297,187.694061 562.584839,187.102341 
z"/>
<path fill="#652D4A" opacity="1.000000" stroke="none" 
	d="
M589.381775,144.020218 
	C589.909180,143.100021 590.753174,142.091309 592.000977,141.122116 
	C591.502686,142.084991 590.600525,143.008347 589.381775,144.020218 
z"/>
<path fill="#60344B" opacity="1.000000" stroke="none" 
	d="
M606.636353,101.058502 
	C606.054138,102.226761 605.186096,103.555229 603.923401,104.866127 
	C604.469360,103.638611 605.409912,102.428658 606.636353,101.058502 
z"/>
<path fill="#632845" opacity="1.000000" stroke="none" 
	d="
M332.122070,212.449005 
	C332.346222,213.852890 332.466309,215.672272 332.323303,217.732910 
	C332.046143,216.270950 332.032043,214.567719 332.122070,212.449005 
z"/>
<path fill="#652D4A" opacity="1.000000" stroke="none" 
	d="
M448.601868,247.670685 
	C449.335236,248.648804 450.169800,249.944427 451.009949,251.609253 
	C450.244720,250.648376 449.473907,249.318283 448.601868,247.670685 
z"/>
<path fill="#652D4A" opacity="1.000000" stroke="none" 
	d="
M587.404541,146.144958 
	C587.533081,145.527390 587.973511,144.823029 588.762329,144.090652 
	C588.645996,144.727814 588.181274,145.392990 587.404541,146.144958 
z"/>
<path fill="#632845" opacity="1.000000" stroke="none" 
	d="
M857.184570,203.584747 
	C856.856934,203.382782 856.483643,202.858627 856.129272,201.984772 
	C856.478394,202.177551 856.808594,202.720047 857.184570,203.584747 
z"/>
<path fill="#652D4A" opacity="1.000000" stroke="none" 
	d="
M446.790527,244.250168 
	C447.124084,244.430557 447.519104,244.928162 447.920227,245.762756 
	C447.568176,245.588959 447.210052,245.078171 446.790527,244.250168 
z"/>
<path fill="#612845" opacity="1.000000" stroke="none" 
	d="
M640.550049,203.969269 
	C640.690369,204.391724 640.584900,205.007477 640.208984,205.799561 
	C640.060425,205.371445 640.182312,204.766998 640.550049,203.969269 
z"/>
<path fill="#75204A" opacity="1.000000" stroke="none" 
	d="
M504.702454,99.077553 
	C504.312439,99.046669 504.231720,98.779564 504.493134,98.283257 
	C504.830811,98.345947 504.889648,98.608376 504.702454,99.077553 
z"/>
<path fill="#652D4A" opacity="1.000000" stroke="none" 
	d="
M428.283295,259.884430 
	C428.126740,259.569122 428.311066,259.343170 428.768494,259.084106 
	C428.831146,259.300354 428.691986,259.607971 428.283295,259.884430 
z"/>
<path fill="#652D4A" opacity="1.000000" stroke="none" 
	d="
M429.831940,259.164612 
	C429.794769,259.163849 430.034515,259.206360 430.034515,259.206360 
	C430.034515,259.206360 429.872803,259.063171 429.887878,259.147369 
	C429.902954,259.231567 429.869110,259.165375 429.831940,259.164612 
z"/>
<path fill="#652D4A" opacity="1.000000" stroke="none" 
	d="
M447.918640,246.321350 
	C448.156311,246.309494 448.415009,246.566833 448.634338,247.110367 
	C448.376526,247.127899 448.158081,246.859238 447.918640,246.321350 
z"/>
<path fill="#75214A" opacity="1.000000" stroke="none" 
	d="
M370.263062,242.709503 
	C370.218719,242.317032 370.467651,242.238083 370.869690,242.512299 
	C370.962189,242.632111 370.495789,242.789719 370.263062,242.709503 
z"/>
<path fill="#75214A" opacity="1.000000" stroke="none" 
	d="
M355.273010,242.708618 
	C355.226318,242.315903 355.472809,242.236526 355.873962,242.509521 
	C355.966644,242.628448 355.504272,242.788498 355.273010,242.708618 
z"/>
<path fill="#612845" opacity="1.000000" stroke="none" 
	d="
M640.925537,203.194427 
	C641.202515,203.218323 641.332947,203.419357 641.463318,203.620407 
	C641.352844,203.686417 641.242371,203.752411 640.934998,203.824005 
	C640.738098,203.829620 640.778931,203.371582 640.925537,203.194427 
z"/>
<path fill="#FEFDFD" opacity="1.000000" stroke="none" 
	d="
M181.592072,114.219467 
	C186.229141,121.836250 190.564148,129.585815 195.079468,137.636749 
	C201.679916,149.049652 208.100052,160.161148 214.420975,171.586426 
	C213.484833,172.227097 212.647919,172.553955 211.811005,172.880829 
	C199.163696,176.697510 186.508072,180.487000 173.876984,184.356598 
	C171.673904,185.031509 169.574219,186.043869 167.146667,187.070770 
	C155.881195,190.795700 144.895859,194.350250 133.527863,197.924805 
	C136.390244,192.011429 139.538055,186.022385 142.897842,180.154739 
	C154.702866,159.538055 166.572708,138.958450 178.448608,118.382477 
	C179.266907,116.964714 180.336990,115.692276 181.592072,114.219467 
z"/>
<path fill="#D39A88" opacity="1.000000" stroke="none" 
	d="
M260.021179,188.878906 
	C260.313416,187.186783 261.031891,185.544205 261.873566,183.619934 
	C255.306427,178.490036 248.372650,174.284317 239.347244,172.652557 
	C237.037125,171.983139 235.393875,171.548248 233.750641,171.113358 
	C241.119217,170.461014 247.893677,172.010345 254.184784,176.061432 
	C256.435944,177.511032 259.530090,177.725372 261.631073,179.310120 
	C263.209595,180.500793 264.525604,182.930450 264.663361,184.899155 
	C264.812195,187.026443 263.791260,189.624756 260.021179,188.878906 
z"/>
<path fill="#D39A88" opacity="1.000000" stroke="none" 
	d="
M243.558578,217.003479 
	C248.255081,208.096329 253.333160,199.185089 258.672333,190.047516 
	C258.231415,192.259094 257.884491,194.876678 256.759308,197.100525 
	C253.663605,203.219025 250.304901,209.208939 246.880371,215.151840 
	C246.369644,216.038147 244.943039,216.396698 243.558578,217.003479 
z"/>
<path fill="#78323C" opacity="1.000000" stroke="none" 
	d="
M233.306763,171.145752 
	C235.393875,171.548248 237.037125,171.983139 238.958344,172.664276 
	C230.414093,172.927734 221.591858,172.944962 212.290314,172.921509 
	C212.647919,172.553955 213.484833,172.227097 214.656601,171.811966 
	C220.948593,171.541855 226.905731,171.359985 233.306763,171.145752 
z"/>
<path fill="#FDF7FA" opacity="1.000000" stroke="none" 
	d="
M364.861328,138.800476 
	C366.833313,138.844299 368.355408,138.727951 369.818695,138.968750 
	C373.659119,139.600739 376.922729,141.057114 377.199585,145.627167 
	C377.472595,150.133347 374.740906,152.591843 370.774597,153.073593 
	C364.884399,153.789078 358.910522,153.815704 352.537720,154.158905 
	C352.537720,148.872437 352.537720,144.172501 352.537720,138.803055 
	C356.522369,138.803055 360.453491,138.803055 364.861328,138.800476 
z"/>
<path fill="#FCF7F9" opacity="1.000000" stroke="none" 
	d="
M357.126953,110.844757 
	C361.263275,110.862129 364.929993,110.686852 368.564728,110.951141 
	C372.272278,111.220726 374.820129,113.156212 374.981018,117.181923 
	C375.135162,121.037758 373.329620,123.749748 369.412781,124.142609 
	C363.871460,124.698402 358.284058,124.795212 352.420990,125.103737 
	C352.420990,120.103935 352.420990,115.858009 352.420990,111.179436 
	C353.809509,111.069473 355.226410,110.957253 357.126953,110.844757 
z"/>
<path fill="#692348" opacity="1.000000" stroke="none" 
	d="
M725.083252,215.222748 
	C725.026062,210.439163 725.026062,206.068726 725.026062,201.698288 
	C725.704041,201.689301 726.382080,201.680313 727.060059,201.671341 
	C726.794983,206.551804 726.529907,211.432251 726.264771,216.312714 
	C725.890015,216.087112 725.515259,215.861511 725.083252,215.222748 
z"/>
<path fill="#FBF9FA" opacity="1.000000" stroke="none" 
	d="
M453.851257,128.223724 
	C453.850586,131.162323 453.850586,133.642792 453.850586,136.479797 
	C444.514648,136.479797 435.441315,136.479797 425.236816,136.479797 
	C425.621185,130.939743 425.327820,125.099976 426.592041,119.619514 
	C428.016693,113.443657 433.860321,110.544441 441.171173,111.002892 
	C446.803314,111.356087 451.623108,115.286018 452.943634,120.858871 
	C453.476227,123.106651 453.562561,125.460175 453.851257,128.223724 
z"/>
<path fill="#FEFDFD" opacity="1.000000" stroke="none" 
	d="
M352.027100,228.156799 
	C347.720520,216.895950 352.458862,204.630402 361.938080,202.501633 
	C370.949005,200.478073 378.702454,206.331757 379.084930,215.568832 
	C379.242706,219.379684 379.100281,223.202957 378.573700,227.506577 
	C369.377686,228.047302 360.702393,228.102051 352.027100,228.156799 
z"/>
<path fill="#5C2943" opacity="1.000000" stroke="none" 
	d="
M352.342163,228.423553 
	C360.702393,228.102051 369.377686,228.047302 378.520294,227.967468 
	C376.301575,228.299179 373.618561,228.927826 370.928894,228.957718 
	C364.840088,229.025391 358.747986,228.797806 352.342163,228.423553 
z"/>
<path fill="#FBF6F8" opacity="1.000000" stroke="none" 
	d="
M452.095032,222.244904 
	C445.002686,223.471634 438.206787,224.445114 430.847107,225.499359 
	C430.847107,217.289795 430.847107,210.249390 430.847107,202.951462 
	C436.686768,202.951462 442.717010,202.155029 448.441254,203.138931 
	C456.936066,204.599045 458.892883,215.093552 452.095032,222.244904 
z"/>
<path fill="#FCFAFB" opacity="1.000000" stroke="none" 
	d="
M657.113647,227.786072 
	C657.359253,222.673660 657.077454,217.466003 657.979431,212.472137 
	C659.202148,205.702560 664.732666,201.967636 671.758850,202.155289 
	C678.666809,202.339798 684.134277,206.583115 684.897888,213.312088 
	C685.440491,218.093521 684.825989,223.006256 683.892395,227.938812 
	C674.409058,227.940186 665.761353,227.863129 657.113647,227.786072 
z"/>
<path fill="#5C2943" opacity="1.000000" stroke="none" 
	d="
M657.083984,228.153351 
	C665.761353,227.863129 674.409058,227.940186 683.520996,228.084320 
	C678.153015,228.437973 672.313660,228.625626 666.492188,229.055344 
	C663.819031,229.252670 661.190308,230.015533 658.517578,230.289261 
	C658.094666,230.332565 657.545349,229.141174 657.083984,228.153351 
z"/>
<path fill="#FDFBFC" opacity="1.000000" stroke="none" 
	d="
M820.388794,203.143433 
	C834.019592,200.172867 840.823914,205.751007 840.845947,219.907669 
	C840.849548,222.230118 840.878357,224.552551 840.432007,227.379791 
	C830.908569,227.884598 821.848633,227.884598 812.806213,227.884598 
	C812.806213,222.557709 812.806213,217.766891 812.806213,212.976074 
	C812.869141,212.818771 812.932129,212.661453 813.136230,211.960068 
	C813.926636,210.000580 814.575928,208.585175 815.225220,207.169754 
	C815.225220,207.169754 815.079590,207.067261 815.424866,206.988434 
	C817.309692,205.654221 818.849243,204.398819 820.388794,203.143433 
z"/>
<path fill="#6C2F4E" opacity="1.000000" stroke="none" 
	d="
M812.444885,213.064423 
	C812.806213,217.766891 812.806213,222.557709 812.806213,227.884598 
	C821.848633,227.884598 830.908569,227.884598 840.425598,227.830704 
	C841.133850,230.493149 840.271729,231.400803 837.407349,230.484131 
	C835.871338,229.992554 834.016418,230.446899 832.310486,230.554626 
	C831.166931,230.626862 829.968872,230.655594 828.904541,231.021774 
	C824.152527,232.656738 819.733521,227.349243 814.762146,230.381271 
	C814.234802,230.702850 811.192810,228.599930 810.869446,227.250000 
	C809.737549,222.524948 808.472656,217.557770 812.444885,213.064423 
z"/>
<path fill="#6C2F4E" opacity="1.000000" stroke="none" 
	d="
M820.056274,203.083282 
	C818.849243,204.398819 817.309692,205.654221 815.476562,207.060913 
	C815.188782,204.181473 814.663513,200.575180 820.056274,203.083282 
z"/>
<path fill="#6C2F4E" opacity="1.000000" stroke="none" 
	d="
M814.871460,207.159790 
	C814.575928,208.585175 813.926636,210.000580 813.109558,211.707336 
	C813.467102,210.382385 813.992432,208.766098 814.871460,207.159790 
z"/>
<path fill="#692348" opacity="1.000000" stroke="none" 
	d="
M512.995483,208.151489 
	C512.807922,222.563019 512.623779,236.494400 512.374817,250.424652 
	C512.372559,250.551514 511.504822,250.662918 511.220947,250.735535 
	C511.220947,234.354202 511.220947,218.022720 511.220947,201.691238 
	C511.812347,201.675247 512.403748,201.659256 512.995117,201.643265 
	C512.995117,203.652603 512.995117,205.661957 512.995483,208.151489 
z"/>
<path fill="#632545" opacity="1.000000" stroke="none" 
	d="
M609.001221,231.001404 
	C609.092834,230.965988 609.183167,230.929153 609.135559,230.945068 
	C608.997559,230.997787 609.000000,231.000000 609.001221,231.001404 
z"/>
<path fill="#751D48" opacity="1.000000" stroke="none" 
	d="
M608.005371,231.006744 
	C607.910828,231.043884 607.811035,231.074203 607.848633,231.046906 
	C607.986023,230.989273 608.000000,230.999924 608.005371,231.006744 
z"/>
</svg>